<svg width="64" height="64" viewBox="0 0 64 64" fill="none" xmlns="http://www.w3.org/2000/svg">
<g clip-path="url(#clip0_10004_31283)">
<mask id="path-1-inside-1_10004_31283" fill="white">
<path d="M43.5502 48.6746L35.8568 56.2346C35.5688 56.5226 35.1768 56.8879 34.7528 57.2719V6.72523C35.1795 7.11456 35.5742 7.47989 35.8728 7.79189L43.5502 15.3332C43.7961 15.5951 44.0925 15.8045 44.4214 15.9489C44.7504 16.0934 45.1051 16.1699 45.4643 16.1738C45.8236 16.1778 46.1799 16.1091 46.5119 15.9719C46.844 15.8348 47.1449 15.6319 47.3966 15.3755C47.6482 15.1192 47.8455 14.8146 47.9766 14.4801C48.1076 14.1456 48.1697 13.7881 48.1592 13.429C48.1486 13.0699 48.0656 12.7166 47.9151 12.3904C47.7646 12.0641 47.5498 11.7717 47.2835 11.5306L39.6275 3.99989C39.0942 3.46656 38.2595 2.70389 37.3875 1.93056C35.9248 0.636331 34.0392 -0.078125 32.0862 -0.078125C30.1331 -0.078125 28.2475 0.636331 26.7848 1.93056C25.9128 2.70123 25.0862 3.45856 24.5608 3.98389L16.8835 11.5172C16.412 12.0191 16.1529 12.6839 16.1605 13.3724C16.1681 14.061 16.4417 14.7199 16.9241 15.2113C17.4065 15.7027 18.0603 15.9884 18.7486 16.0086C19.4369 16.0289 20.1064 15.7821 20.6168 15.3199L28.3102 7.76256C28.5982 7.47456 28.9902 7.11189 29.4142 6.72523V57.2719C28.9875 56.8826 28.5902 56.5146 28.2942 56.2052L20.6222 48.6746C20.1128 48.2043 19.4403 47.9508 18.7473 47.9679C18.0542 47.9851 17.3951 48.2714 16.9096 48.7663C16.4241 49.2611 16.1504 49.9256 16.1465 50.6189C16.1426 51.3121 16.4089 51.9796 16.8888 52.4799L24.5448 59.9999C25.0782 60.5332 25.9128 61.2986 26.7848 62.0719C28.2426 63.3634 30.1226 64.0767 32.0702 64.0772H32.1021C34.0512 64.0754 35.9322 63.3602 37.3902 62.0666C38.2595 61.2959 39.0862 60.5412 39.6115 60.0159L47.2888 52.4746C47.7687 51.9743 48.035 51.3068 48.0311 50.6135C48.0272 49.9203 47.7535 49.2558 47.268 48.7609C46.7825 48.2661 46.1234 47.9797 45.4303 47.9626C44.7373 47.9455 44.0648 48.1989 43.5555 48.6692L43.5502 48.6746Z"/>
</mask>
<path d="M43.5502 48.6746L35.8568 56.2346C35.5688 56.5226 35.1768 56.8879 34.7528 57.2719V6.72523C35.1795 7.11456 35.5742 7.47989 35.8728 7.79189L43.5502 15.3332C43.7961 15.5951 44.0925 15.8045 44.4214 15.9489C44.7504 16.0934 45.1051 16.1699 45.4643 16.1738C45.8236 16.1778 46.1799 16.1091 46.5119 15.9719C46.844 15.8348 47.1449 15.6319 47.3966 15.3755C47.6482 15.1192 47.8455 14.8146 47.9766 14.4801C48.1076 14.1456 48.1697 13.7881 48.1592 13.429C48.1486 13.0699 48.0656 12.7166 47.9151 12.3904C47.7646 12.0641 47.5498 11.7717 47.2835 11.5306L39.6275 3.99989C39.0942 3.46656 38.2595 2.70389 37.3875 1.93056C35.9248 0.636331 34.0392 -0.078125 32.0862 -0.078125C30.1331 -0.078125 28.2475 0.636331 26.7848 1.93056C25.9128 2.70123 25.0862 3.45856 24.5608 3.98389L16.8835 11.5172C16.412 12.0191 16.1529 12.6839 16.1605 13.3724C16.1681 14.061 16.4417 14.7199 16.9241 15.2113C17.4065 15.7027 18.0603 15.9884 18.7486 16.0086C19.4369 16.0289 20.1064 15.7821 20.6168 15.3199L28.3102 7.76256C28.5982 7.47456 28.9902 7.11189 29.4142 6.72523V57.2719C28.9875 56.8826 28.5902 56.5146 28.2942 56.2052L20.6222 48.6746C20.1128 48.2043 19.4403 47.9508 18.7473 47.9679C18.0542 47.9851 17.3951 48.2714 16.9096 48.7663C16.4241 49.2611 16.1504 49.9256 16.1465 50.6189C16.1426 51.3121 16.4089 51.9796 16.8888 52.4799L24.5448 59.9999C25.0782 60.5332 25.9128 61.2986 26.7848 62.0719C28.2426 63.3634 30.1226 64.0767 32.0702 64.0772H32.1021C34.0512 64.0754 35.9322 63.3602 37.3902 62.0666C38.2595 61.2959 39.0862 60.5412 39.6115 60.0159L47.2888 52.4746C47.7687 51.9743 48.035 51.3068 48.0311 50.6135C48.0272 49.9203 47.7535 49.2558 47.268 48.7609C46.7825 48.2661 46.1234 47.9797 45.4303 47.9626C44.7373 47.9455 44.0648 48.1989 43.5555 48.6692L43.5502 48.6746Z" fill="black"/>
<path d="M43.5502 48.6746L83.4235 89.2512L83.6105 89.0674L83.7959 88.8819L43.5502 48.6746ZM35.8568 56.2346L-4.01654 15.6579L-4.19389 15.8322L-4.36971 16.008L35.8568 56.2346ZM34.7528 57.2719H-22.1361V185.546L72.9412 99.4382L34.7528 57.2719ZM34.7528 6.72523L73.0988 -35.2978L-22.1361 -122.2V6.72523H34.7528ZM35.8728 7.79189L-5.22222 47.1307L-4.617 47.763L-3.99263 48.3763L35.8728 7.79189ZM43.5502 15.3332L85.0118 -23.619L84.2301 -24.4511L83.4156 -25.2512L43.5502 15.3332ZM44.4214 15.9489L67.2958 -36.1386L44.4214 15.9489ZM47.2835 11.5306L7.39031 52.0877L8.22883 52.9125L9.10071 53.7019L47.2835 11.5306ZM39.6275 3.99989L-0.599037 44.2264L-0.433046 44.3924L-0.26569 44.557L39.6275 3.99989ZM37.3875 1.93056L75.1339 -40.6318L75.1099 -40.6531L75.0859 -40.6744L37.3875 1.93056ZM26.7848 1.93056L64.4582 44.5576L64.4707 44.5465L64.4832 44.5355L26.7848 1.93056ZM24.5608 3.98389L64.4047 44.5894L64.5969 44.4008L64.7873 44.2104L24.5608 3.98389ZM16.8835 11.5172L-22.9604 -29.0883L-23.7861 -28.2781L-24.5782 -27.435L16.8835 11.5172ZM20.6168 15.3199L58.7996 57.4912L59.6575 56.7145L60.483 55.9035L20.6168 15.3199ZM28.3102 7.76256L68.1764 48.3462L68.3573 48.1684L68.5367 47.9891L28.3102 7.76256ZM29.4142 6.72523H86.303V-122.147L-8.9192 -35.3093L29.4142 6.72523ZM29.4142 57.2719L-8.93183 99.2949L86.303 186.197V57.2719H29.4142ZM28.2942 56.2052L69.3968 16.8743L68.7808 16.2306L68.145 15.6065L28.2942 56.2052ZM20.6222 48.6746L60.473 8.07582L59.8527 7.46699L59.2142 6.87739L20.6222 48.6746ZM16.8888 52.4799L-24.1636 91.8632L-23.5785 92.4731L-22.9756 93.0653L16.8888 52.4799ZM24.5448 59.9999L64.7713 19.7734L64.5911 19.5931L64.4092 19.4145L24.5448 59.9999ZM26.7848 62.0719L-10.9616 104.634L-10.9511 104.644L-10.9405 104.653L26.7848 62.0719ZM32.0702 64.0772L32.0551 120.966H32.0626H32.0702V64.0772ZM32.1021 64.0772V120.966H32.1288L32.1555 120.966L32.1021 64.0772ZM37.3902 62.0666L-0.348001 19.4969L-0.357655 19.5054L-0.367302 19.514L37.3902 62.0666ZM39.6115 60.0159L-0.253975 19.4315L-0.435307 19.6096L-0.615038 19.7894L39.6115 60.0159ZM47.2888 52.4746L87.1543 93.0589L87.7567 92.4672L88.3413 91.8578L47.2888 52.4746ZM43.5555 48.6692L4.96348 6.87206L4.1206 7.6503L3.30978 8.46189L43.5555 48.6692ZM3.6768 8.09795L-4.01654 15.6579L75.7302 96.8112L83.4235 89.2512L3.6768 8.09795ZM-4.36971 16.008C-4.13938 15.7777 -3.95501 15.5985 -3.83339 15.4814C-3.7085 15.3612 -3.61337 15.2714 -3.55532 15.217C-3.44575 15.1143 -3.39984 15.0733 -3.43553 15.1056L72.9412 99.4382C73.578 98.8614 74.7924 97.7521 76.0833 96.4611L-4.36971 16.008ZM91.6417 57.2719V6.72523H-22.1361V57.2719H91.6417ZM-3.59316 48.7482C-3.43507 48.8925 -3.53242 48.8054 -3.72178 48.6264C-3.83006 48.524 -4.01328 48.3493 -4.24789 48.1187C-4.47879 47.8918 -4.81567 47.5554 -5.22222 47.1307L76.9679 -31.5469C75.1396 -33.4568 73.3539 -35.065 73.0988 -35.2978L-3.59316 48.7482ZM-3.99263 48.3763L3.68471 55.9176L83.4156 -25.2512L75.7383 -32.7925L-3.99263 48.3763ZM2.08848 54.2854C7.582 60.1329 14.2006 64.8102 21.5471 68.0365L67.2958 -36.1386C73.9844 -33.2013 80.0103 -28.9428 85.0118 -23.619L2.08848 54.2854ZM21.5471 68.0365C28.8933 71.2626 36.8157 72.9711 44.8387 73.0593L46.09 -40.7116C53.3945 -40.6313 60.6074 -39.0758 67.2958 -36.1386L21.5471 68.0365ZM44.8387 73.0593C52.8617 73.1475 60.8197 71.6137 68.2351 68.55L24.7888 -36.6061C31.5401 -39.3955 38.7855 -40.7919 46.09 -40.7116L44.8387 73.0593ZM68.2351 68.55C75.6505 65.4862 82.3705 60.9557 87.9915 55.2303L6.80165 -24.4792C11.9193 -29.6919 18.0374 -33.8167 24.7888 -36.6061L68.2351 68.55ZM87.9915 55.2303C93.6124 49.5049 98.0186 42.7028 100.945 35.2322L-4.99224 -6.27202C-2.32753 -13.0736 1.68404 -19.2665 6.80165 -24.4792L87.9915 55.2303ZM100.945 35.2322C103.872 27.7617 105.259 19.7768 105.023 11.7568L-8.70513 15.1012C-8.91985 7.79929 -7.65691 0.529436 -4.99224 -6.27202L100.945 35.2322ZM105.023 11.7568C104.788 3.73673 102.934 -4.15288 99.573 -11.4385L-3.74271 36.2192C-6.80247 29.5861 -8.4904 22.403 -8.70513 15.1012L105.023 11.7568ZM99.573 -11.4385C96.2123 -18.724 91.4141 -25.2555 85.4663 -30.6408L9.10071 53.7019C3.68555 48.7989 -0.682972 42.8523 -3.74271 36.2192L99.573 -11.4385ZM87.1767 -29.0266L79.5207 -36.5572L-0.26569 44.557L7.39031 52.0877L87.1767 -29.0266ZM79.854 -36.2266C78.0318 -38.0488 76.1078 -39.7681 75.1339 -40.6318L-0.35894 44.4929C-0.241493 44.5971 -0.141172 44.6868 -0.0592995 44.7606C0.0239544 44.8357 0.0739479 44.8814 0.0931263 44.8991C0.115822 44.92 0.0761318 44.8838 -0.0138454 44.7983C-0.0610352 44.7535 -0.132645 44.685 -0.224827 44.5954C-0.315767 44.5071 -0.44298 44.3825 -0.599037 44.2264L79.854 -36.2266ZM75.0859 -40.6744C63.2219 -51.172 47.9276 -56.967 32.0862 -56.967V56.8108C20.1508 56.8108 8.62768 52.4446 -0.310888 44.5355L75.0859 -40.6744ZM32.0862 -56.967C16.2447 -56.967 0.950368 -51.172 -10.9136 -40.6744L64.4832 44.5355C55.5446 52.4446 44.0215 56.8108 32.0862 56.8108V-56.967ZM-10.8886 -40.6964C-11.9663 -39.744 -13.8604 -38.0479 -15.6657 -36.2426L64.7873 44.2104C64.6352 44.3625 64.5109 44.4844 64.4213 44.5715C64.3305 44.6598 64.2594 44.7278 64.2114 44.7734C64.1196 44.8608 64.0758 44.9008 64.0899 44.8878C64.1007 44.8778 64.1403 44.8416 64.2093 44.7794C64.2772 44.7183 64.361 44.6435 64.4582 44.5576L-10.8886 -40.6964ZM-15.2831 -36.6216L-22.9604 -29.0883L56.7274 52.1228L64.4047 44.5894L-15.2831 -36.6216ZM-24.5782 -27.435C-35.1081 -16.2267 -40.8941 -1.37963 -40.725 13.9981L73.0459 12.7468C73.1999 26.7474 67.9321 40.2649 58.3452 50.4694L-24.5782 -27.435ZM-40.725 13.9981C-40.5558 29.3759 -34.4446 44.0921 -23.6708 55.066L57.519 -24.6434C67.328 -14.6522 72.892 -1.2539 73.0459 12.7468L-40.725 13.9981ZM-23.6708 55.066C-12.8969 66.04 1.70437 72.4209 17.0764 72.8729L20.4208 -40.8557C34.4163 -40.4441 47.71 -34.6347 57.519 -24.6434L-23.6708 55.066ZM17.0764 72.8729C32.4485 73.325 47.3995 67.8131 58.7996 57.4912L-17.566 -26.8514C-7.18677 -36.249 6.42533 -41.2673 20.4208 -40.8557L17.0764 72.8729ZM60.483 55.9035L68.1764 48.3462L-11.5561 -32.8211L-19.2494 -25.2637L60.483 55.9035ZM68.5367 47.9891C68.2774 48.2484 68.0726 48.4467 67.9474 48.567C67.8183 48.691 67.7256 48.7781 67.6828 48.8181C67.6102 48.8861 67.609 48.8861 67.7475 48.7597L-8.9192 -35.3093C-9.29534 -34.9663 -10.5875 -33.7929 -11.9164 -32.464L68.5367 47.9891ZM-27.4747 6.72523V57.2719H86.303V6.72523H-27.4747ZM67.7601 15.2489C67.6072 15.1094 67.7022 15.1944 67.8898 15.3717C67.9966 15.4727 68.179 15.6465 68.4132 15.8768C68.643 16.1026 68.9838 16.4427 69.3968 16.8743L-12.8084 95.5362C-10.9788 97.4482 -9.18647 99.0625 -8.93183 99.2949L67.7601 15.2489ZM68.145 15.6065L60.473 8.07582L-19.2287 89.2733L-11.5567 96.804L68.145 15.6065ZM59.2142 6.87739C47.8389 -3.62557 32.8204 -9.28598 17.3423 -8.90359L20.1523 104.839C6.06024 105.188 -7.61328 100.034 -17.9699 90.4717L59.2142 6.87739ZM17.3423 -8.90359C1.86429 -8.52121 -12.8564 -2.12621 -23.6993 8.92577L57.5185 88.6068C47.6466 98.669 34.2442 104.491 20.1523 104.839L17.3423 -8.90359ZM-23.6993 8.92577C-34.5422 19.9778 -40.6548 34.8179 -40.7415 50.3004L73.0345 50.9374C72.9556 65.0333 67.3904 78.5445 57.5185 88.6068L-23.6993 8.92577ZM-40.7415 50.3004C-40.8282 65.7828 -34.8821 80.6905 -24.1636 91.8632L57.9413 13.0966C67.6998 23.2688 73.1135 36.8414 73.0345 50.9374L-40.7415 50.3004ZM-22.9756 93.0653L-15.3196 100.585L64.4092 19.4145L56.7532 11.8945L-22.9756 93.0653ZM-15.6817 100.226C-13.8919 102.016 -12.0077 103.707 -10.9616 104.634L64.5312 19.5095C64.4261 19.4163 64.3347 19.3344 64.2594 19.2666C64.183 19.1975 64.1363 19.1547 64.1184 19.1382C64.0972 19.1186 64.1339 19.1522 64.2186 19.2328C64.2629 19.275 64.3304 19.3395 64.4174 19.4241C64.5032 19.5076 64.6235 19.6255 64.7713 19.7734L-15.6817 100.226ZM-10.9405 104.653C0.918108 115.159 16.212 120.962 32.0551 120.966L32.0852 7.18834C44.0332 7.19149 55.567 11.5675 64.5101 19.4908L-10.9405 104.653ZM32.0702 120.966H32.1021V7.18833H32.0702V120.966ZM32.1555 120.966C48.0018 120.951 63.2946 115.136 75.1476 104.619L-0.367302 19.514C8.56987 11.5839 20.1007 7.19956 32.0488 7.18836L32.1555 120.966ZM75.1283 104.636C76.0811 103.792 78.0115 102.069 79.838 100.242L-0.615038 19.7894C-0.454655 19.629 -0.323685 19.5007 -0.229866 19.4096C-0.134762 19.3173 -0.0606041 19.2464 -0.0114117 19.1997C0.0824509 19.1105 0.125235 19.0715 0.104103 19.091C0.0865917 19.1071 0.0376148 19.1519 -0.0457268 19.227C-0.127642 19.3008 -0.228724 19.3911 -0.348001 19.4969L75.1283 104.636ZM79.4769 100.6L87.1543 93.0589L7.42336 11.8902L-0.253975 19.4315L79.4769 100.6ZM88.3413 91.8578C99.0596 80.6852 105.006 65.7776 104.919 50.295L-8.85689 50.9321C-8.93582 36.836 -3.52211 23.2634 6.23637 13.0913L88.3413 91.8578ZM104.919 50.295C104.832 34.8123 98.7196 19.9723 87.8769 8.92044L6.65916 88.6015C-3.21256 78.5394 -8.77796 65.0282 -8.85689 50.9321L104.919 50.295ZM87.8769 8.92044C77.0341 -2.13148 62.3134 -8.52654 46.8354 -8.90892L44.0253 104.834C29.9333 104.486 16.531 98.6636 6.65916 88.6015L87.8769 8.92044ZM46.8354 -8.90892C31.3575 -9.2913 16.339 -3.63114 4.96348 6.87206L82.1475 90.4664C71.7907 100.029 58.1171 105.182 44.0253 104.834L46.8354 -8.90892ZM3.30978 8.46189L3.30445 8.46723L83.7959 88.8819L83.8012 88.8766L3.30978 8.46189Z" fill="#E7BC0F" mask="url(#path-1-inside-1_10004_31283)"/>
</g>
<defs>
<clipPath id="clip0_10004_31283">
<rect width="64" height="64" fill="white"/>
</clipPath>
</defs>
</svg>
