<svg width="64" height="64" viewBox="0 0 64 64" fill="none" xmlns="http://www.w3.org/2000/svg">
<path d="M46.9912 28.6664C45.8446 28.6664 44.9379 27.7331 44.9379 26.6131C44.9379 25.6264 43.9512 23.5731 42.2979 21.7864C40.6712 20.0531 38.8846 19.0398 37.3912 19.0398C36.2446 19.0398 35.3379 18.1064 35.3379 16.9864C35.3379 15.8664 36.2712 14.9331 37.3912 14.9331C40.0579 14.9331 42.8579 16.3731 45.3112 18.9598C47.6046 21.3864 49.0712 24.3998 49.0712 26.5864C49.0712 27.7331 48.1379 28.6664 46.9912 28.6664Z" fill="#E7BC0F"/>
<path d="M56.6147 28.6668C55.468 28.6668 54.5613 27.7335 54.5613 26.6135C54.5613 17.1468 46.8547 9.46683 37.4147 9.46683C36.268 9.46683 35.3613 8.5335 35.3613 7.4135C35.3613 6.2935 36.268 5.3335 37.388 5.3335C49.1213 5.3335 58.668 14.8802 58.668 26.6135C58.668 27.7335 57.7347 28.6668 56.6147 28.6668Z" fill="#E7BC0F"/>
<path d="M29.4712 39.8668L24.5379 44.8002C23.4979 45.8402 21.8446 45.8402 20.7779 44.8268C20.4846 44.5335 20.1912 44.2668 19.8979 43.9735C17.1512 41.2002 14.6712 38.2935 12.4579 35.2535C10.2712 32.2135 8.51122 29.1735 7.23122 26.1602C5.97789 23.1202 5.33789 20.2135 5.33789 17.4402C5.33789 15.6268 5.65789 13.8935 6.29789 12.2935C6.93789 10.6668 7.95122 9.1735 9.36456 7.84016C11.0712 6.16016 12.9379 5.3335 14.9112 5.3335C15.6579 5.3335 16.4046 5.4935 17.0712 5.8135C17.7646 6.1335 18.3779 6.6135 18.8579 7.30683L25.0446 16.0268C25.5246 16.6935 25.8712 17.3068 26.1112 17.8935C26.3512 18.4535 26.4846 19.0135 26.4846 19.5202C26.4846 20.1602 26.2979 20.8002 25.9246 21.4135C25.5779 22.0268 25.0712 22.6668 24.4312 23.3068L22.4046 25.4135C22.1112 25.7068 21.9779 26.0535 21.9779 26.4802C21.9779 26.6935 22.0046 26.8802 22.0579 27.0935C22.1379 27.3068 22.2179 27.4668 22.2712 27.6268C22.7512 28.5068 23.5779 29.6535 24.7512 31.0402C25.9512 32.4268 27.2312 33.8402 28.6179 35.2535C28.8846 35.5202 29.1779 35.7868 29.4446 36.0535C30.5112 37.0935 30.5379 38.8002 29.4712 39.8668Z" fill="#E7BC0F"/>
<path d="M58.5843 48.8799C58.5843 49.6266 58.451 50.3999 58.1843 51.1466C58.1043 51.3599 58.0243 51.5733 57.9177 51.7866C57.4643 52.7466 56.8777 53.6533 56.1043 54.5066C54.7977 55.9466 53.3577 56.9866 51.731 57.6533C51.7043 57.6533 51.6777 57.6799 51.651 57.6799C50.0777 58.3199 48.371 58.6666 46.531 58.6666C43.811 58.6666 40.9043 58.0266 37.8377 56.7199C34.771 55.4133 31.7043 53.6533 28.6643 51.4399C27.6243 50.6666 26.5843 49.8933 25.5977 49.0666L34.3177 40.3466C35.0643 40.9066 35.731 41.3333 36.291 41.6266C36.4243 41.6799 36.5843 41.7599 36.771 41.8399C36.9843 41.9199 37.1977 41.9466 37.4377 41.9466C37.891 41.9466 38.2377 41.7866 38.531 41.4933L40.5577 39.4933C41.2243 38.8266 41.8643 38.3199 42.4777 37.9999C43.091 37.6266 43.7043 37.4399 44.371 37.4399C44.8777 37.4399 45.411 37.5466 45.9977 37.7866C46.5843 38.0266 47.1977 38.3733 47.8643 38.8266L56.691 45.0933C57.3843 45.5733 57.8643 46.1333 58.1577 46.7999C58.4243 47.4666 58.5843 48.1333 58.5843 48.8799Z" fill="#E7BC0F"/>
</svg>
