<svg width="64" height="64" viewBox="0 0 64 64" fill="none" xmlns="http://www.w3.org/2000/svg">
<g clip-path="url(#clip0_10004_31266)">
<path d="M6.66699 50.667C6.66721 55.8137 10.8533 59.9998 16 60H50.667C55.8139 60 59.9998 55.8138 60 50.667V33.333H6.66699V50.667ZM15.3574 12.9785L8.96289 14.6875L8.96094 14.6885C5.47303 15.6273 3.35559 19.2385 4.22949 22.7441L4.23535 22.7676L5.17676 26.2666L5.52051 27.543L6.7998 27.21L8.94141 26.6533L9.44727 26.5215L9.72949 26.0811L16.8252 14.9854L18.6758 12.0918L15.3574 12.9785ZM30.1738 9.02148L22.998 10.9385L22.4971 11.0723L22.2188 11.5088L15.0801 22.6738L13.249 25.5371L16.5381 24.6826L23.7041 22.8213L24.2109 22.6895L24.4932 22.2471L31.6426 11.0254L33.4824 8.13672L30.1738 9.02148ZM45.6748 4.87988L37.7979 6.9834L37.2959 7.11816L37.0176 7.55566L29.8223 18.8457L28.001 21.7051L31.2822 20.8535L39.3008 18.7705L39.8154 18.6367L40.0977 18.1855L47.1504 6.87305L48.9365 4.00879L45.6748 4.87988ZM51.2607 5.32129L45.3359 14.8252L43.5674 17.6611L46.8027 16.8213L56.3408 14.3438L57.6562 14.002L57.29 12.6934L56.3506 9.3418C55.9198 7.44471 54.8555 5.92865 53.2783 4.97168C53.199 4.92356 53.1272 4.88978 53.0732 4.86621C53.0341 4.84911 52.9986 4.83489 52.9756 4.82617L51.9248 4.25684L51.2607 5.32129ZM4 32.1738L3.95508 32.0039L1.65137 23.4092C0.427861 18.4702 3.40886 13.4214 8.27441 12.1143L8.27344 12.1133L47.3926 1.65625L47.4258 1.64648C52.3463 0.195205 57.9498 3.60738 58.9287 8.65332L58.9395 8.70703L58.9531 8.75879L59.875 12.0625C60.3808 14.3238 59.0925 16.3829 57.0098 16.9229H57.0088L14.1963 28.043L14.5312 30.667H58.667C60.8719 30.667 62.667 32.462 62.667 34.667V50.667C62.6668 57.2824 57.2825 62.667 50.667 62.667H16C9.38471 62.6668 4.00022 57.2823 4 50.667V32.1738Z" fill="#E7BC0F" stroke="#E7BC0F" stroke-width="2.66667"/>
</g>
<defs>
<clipPath id="clip0_10004_31266">
<rect width="64" height="64" fill="white"/>
</clipPath>
</defs>
</svg>
