<svg width="64" height="64" viewBox="0 0 64 64" fill="none" xmlns="http://www.w3.org/2000/svg">
<g clip-path="url(#clip0_10004_31281)">
<path d="M50.667 17.333C55.3916 17.333 59.4192 20.7598 60.2139 25.3682L60.2803 25.8184L62.6162 44.5068C62.8512 46.4002 62.2613 48.3069 60.9961 49.7441C60.2589 50.5789 59.2989 51.1874 58.2168 51.5732L57.3311 51.8896V61.333C57.3311 62.0713 56.7363 62.667 55.998 62.667C55.2598 62.667 54.665 62.0713 54.665 61.333V52H47.998C47.2599 52 46.6652 51.4051 46.665 50.667C46.665 49.9287 47.2598 49.333 47.998 49.333H55.998C57.1546 49.333 58.2323 48.85 58.999 47.9795L59.001 47.9775C59.7624 47.109 60.1101 45.9883 59.9668 44.8379V44.8369L57.6309 26.1494C57.1928 22.6419 54.1985 20.0001 50.665 20C49.0302 20 47.4418 20.5761 46.1855 21.6152L46.1846 21.6162C45.6169 22.0864 44.7739 22.0053 44.3066 21.4424H44.3076C43.8376 20.8746 43.9151 20.0339 44.4814 19.5635C46.2184 18.1247 48.4136 17.3331 50.667 17.333ZM29.334 33.333C27.1293 33.3331 25.3342 35.1239 25.334 37.333V45.333C25.334 47.5422 27.1292 49.3329 29.334 49.333H34.667C36.8754 49.333 38.667 47.5414 38.667 45.333V37.333C38.6668 35.1248 36.8753 33.333 34.667 33.333H29.334ZM32.001 14.667C34.9472 14.6671 37.334 17.0538 37.334 20C37.334 22.9462 34.9472 25.3329 32.001 25.333C29.0547 25.333 26.667 22.9463 26.667 20C26.667 17.0537 29.0547 14.667 32.001 14.667ZM13.334 1.33301C16.2803 1.33301 18.667 3.7207 18.667 6.66699C18.6668 9.61313 16.2802 12 13.334 12C10.3879 11.9999 8.00115 9.61309 8.00098 6.66699C8.00098 3.72074 10.3877 1.33307 13.334 1.33301ZM50.667 1.33301C53.6133 1.33301 56.001 3.72071 56.001 6.66699C56.0008 9.61313 53.6132 12 50.667 12C47.721 11.9998 45.3342 9.61298 45.334 6.66699C45.334 3.72085 47.7209 1.33324 50.667 1.33301ZM6.66699 51.8896L5.78223 51.5732C4.83533 51.2356 3.98142 50.7279 3.28906 50.0469L3.00293 49.7441L2.77344 49.4697C1.73982 48.1657 1.23255 46.5228 1.35059 44.8633L1.38477 44.5068L3.7207 25.8184C4.32532 20.9853 8.45839 17.3345 13.3311 17.333C15.5847 17.3335 17.7814 18.1264 19.5146 19.5645L19.5156 19.5654C20.0812 20.0338 20.1599 20.875 19.6895 21.4414L19.6875 21.4443C19.2488 21.975 18.4857 22.0782 17.9229 21.6992L17.8125 21.6172L17.8105 21.6152C16.5543 20.5761 14.9659 20 13.3311 20C9.79766 20.0002 6.80325 22.642 6.36523 26.1494L4.0293 44.8369V44.8379C3.8856 45.9916 4.23882 47.1115 4.99805 47.9775L5.00293 47.9824C5.7701 48.8489 6.84245 49.333 8.00098 49.333H16.001C16.7374 49.3331 17.334 49.9296 17.334 50.667C17.3338 51.4042 16.7373 51.9999 16.001 52H9.33398V61.333C9.33398 62.0704 8.73737 62.6669 8.00098 62.667C7.26449 62.667 6.66699 62.0704 6.66699 61.333V51.8896ZM25.334 50.6602L24.8936 50.2627C23.5287 49.0322 22.667 47.2821 22.667 45.333V37.333C22.6672 33.6589 25.6599 30.6671 29.334 30.667H34.667C38.3412 30.667 41.3338 33.6589 41.334 37.333V45.333C41.334 47.2814 40.4736 49.0297 39.1074 50.2637L38.667 50.6611V61.333C38.667 62.0713 38.0723 62.667 37.334 62.667C36.5957 62.6669 36.001 62.0713 36.001 61.333V52H28.001V61.333C28.001 62.0704 27.4035 62.667 26.667 62.667C25.9307 62.6668 25.334 62.0703 25.334 61.333V50.6602Z" stroke="#E7BC0F" stroke-width="2.66667"/>
</g>
<defs>
<clipPath id="clip0_10004_31281">
<rect width="64" height="64" fill="white"/>
</clipPath>
</defs>
</svg>
