<svg width="64" height="64" viewBox="0 0 64 64" fill="none" xmlns="http://www.w3.org/2000/svg">
<g clip-path="url(#clip0_10004_31255)">
<mask id="path-1-inside-1_10004_31255" fill="white">
<path d="M53.3333 10.6667H40C40 7.83769 38.8762 5.12458 36.8758 3.12419C34.8754 1.12381 32.1623 0 29.3333 0L10.6667 0C7.83769 0 5.12458 1.12381 3.12419 3.12419C1.12381 5.12458 0 7.83769 0 10.6667L0 61.3333C0 62.0406 0.280952 62.7189 0.781049 63.219C1.28115 63.7191 1.95942 64 2.66667 64C3.37391 64 4.05219 63.7191 4.55229 63.219C5.05238 62.7189 5.33333 62.0406 5.33333 61.3333V34.6667H26.6667C26.6667 37.4956 27.7905 40.2088 29.7909 42.2091C31.7913 44.2095 34.5044 45.3333 37.3333 45.3333H53.3333C56.1623 45.3333 58.8754 44.2095 60.8758 42.2091C62.8762 40.2088 64 37.4956 64 34.6667V21.3333C64 18.5044 62.8762 15.7912 60.8758 13.7909C58.8754 11.7905 56.1623 10.6667 53.3333 10.6667ZM5.33333 29.3333V10.6667C5.33333 9.25218 5.89524 7.89562 6.89543 6.89543C7.89562 5.89524 9.25218 5.33333 10.6667 5.33333H29.3333C30.7478 5.33333 32.1044 5.89524 33.1046 6.89543C34.1048 7.89562 34.6667 9.25218 34.6667 10.6667V24C34.6667 25.4145 34.1048 26.771 33.1046 27.7712C32.1044 28.7714 30.7478 29.3333 29.3333 29.3333H5.33333ZM58.6667 34.6667C58.6667 36.0812 58.1048 37.4377 57.1046 38.4379C56.1044 39.4381 54.7478 40 53.3333 40H37.3333C35.9188 40 34.5623 39.4381 33.5621 38.4379C32.5619 37.4377 32 36.0812 32 34.6667V34.288C34.2831 33.6985 36.3064 32.3692 37.7539 30.5078C39.2013 28.6464 39.9912 26.3579 40 24V16H53.3333C54.7478 16 56.1044 16.5619 57.1046 17.5621C58.1048 18.5623 58.6667 19.9188 58.6667 21.3333V34.6667Z"/>
</mask>
<path d="M53.3333 10.6667H40C40 7.83769 38.8762 5.12458 36.8758 3.12419C34.8754 1.12381 32.1623 0 29.3333 0L10.6667 0C7.83769 0 5.12458 1.12381 3.12419 3.12419C1.12381 5.12458 0 7.83769 0 10.6667L0 61.3333C0 62.0406 0.280952 62.7189 0.781049 63.219C1.28115 63.7191 1.95942 64 2.66667 64C3.37391 64 4.05219 63.7191 4.55229 63.219C5.05238 62.7189 5.33333 62.0406 5.33333 61.3333V34.6667H26.6667C26.6667 37.4956 27.7905 40.2088 29.7909 42.2091C31.7913 44.2095 34.5044 45.3333 37.3333 45.3333H53.3333C56.1623 45.3333 58.8754 44.2095 60.8758 42.2091C62.8762 40.2088 64 37.4956 64 34.6667V21.3333C64 18.5044 62.8762 15.7912 60.8758 13.7909C58.8754 11.7905 56.1623 10.6667 53.3333 10.6667ZM5.33333 29.3333V10.6667C5.33333 9.25218 5.89524 7.89562 6.89543 6.89543C7.89562 5.89524 9.25218 5.33333 10.6667 5.33333H29.3333C30.7478 5.33333 32.1044 5.89524 33.1046 6.89543C34.1048 7.89562 34.6667 9.25218 34.6667 10.6667V24C34.6667 25.4145 34.1048 26.771 33.1046 27.7712C32.1044 28.7714 30.7478 29.3333 29.3333 29.3333H5.33333ZM58.6667 34.6667C58.6667 36.0812 58.1048 37.4377 57.1046 38.4379C56.1044 39.4381 54.7478 40 53.3333 40H37.3333C35.9188 40 34.5623 39.4381 33.5621 38.4379C32.5619 37.4377 32 36.0812 32 34.6667V34.288C34.2831 33.6985 36.3064 32.3692 37.7539 30.5078C39.2013 28.6464 39.9912 26.3579 40 24V16H53.3333C54.7478 16 56.1044 16.5619 57.1046 17.5621C58.1048 18.5623 58.6667 19.9188 58.6667 21.3333V34.6667Z" fill="#E7BC0F"/>
<path d="M40 10.6667H-16.8889V67.5556H40V10.6667ZM10.6667 0V-56.8889V0ZM0 10.6667H-56.8889H0ZM0 61.3333H-56.8889H0ZM5.33333 61.3333H62.2222H5.33333ZM5.33333 34.6667V-22.2222H-51.5556V34.6667H5.33333ZM26.6667 34.6667H83.5556V-22.2222H26.6667V34.6667ZM5.33333 29.3333H-51.5556V86.2222H5.33333V29.3333ZM5.33333 10.6667H62.2222H5.33333ZM32 34.288L17.7782 -20.7945L-24.8889 -9.77828V34.288H32ZM40 24L96.8885 24.2132L96.8889 24.1066V24H40ZM40 16V-40.8889H-16.8889V16H40ZM53.3333 16V-40.8889V16ZM53.3333 -46.2222H40V67.5556H53.3333V-46.2222ZM96.8889 10.6667C96.8889 -7.25018 89.7715 -24.4332 77.1023 -37.1023L-3.35071 43.3507C-12.0191 34.6824 -16.8889 22.9256 -16.8889 10.6667H96.8889ZM77.1023 -37.1023C64.4332 -49.7715 47.2502 -56.8889 29.3333 -56.8889V56.8889C17.0744 56.8889 5.31763 52.0191 -3.35071 43.3507L77.1023 -37.1023ZM29.3333 -56.8889H10.6667V56.8889H29.3333V-56.8889ZM10.6667 -56.8889C-7.25018 -56.8889 -24.4332 -49.7715 -37.1023 -37.1023L43.3507 43.3507C34.6824 52.0191 22.9256 56.8889 10.6667 56.8889V-56.8889ZM-37.1023 -37.1023C-49.7715 -24.4332 -56.8889 -7.25018 -56.8889 10.6667H56.8889C56.8889 22.9256 52.0191 34.6824 43.3507 43.3507L-37.1023 -37.1023ZM-56.8889 10.6667V61.3333H56.8889V10.6667H-56.8889ZM-56.8889 61.3333C-56.8889 77.1284 -50.6143 92.2766 -39.4455 103.445L41.0076 22.9924C51.1762 33.1611 56.8889 46.9528 56.8889 61.3333H-56.8889ZM-39.4455 103.445C-28.2766 114.614 -13.1283 120.889 2.66667 120.889V7.11111C17.0472 7.11111 30.8389 12.8237 41.0076 22.9924L-39.4455 103.445ZM2.66667 120.889C18.4617 120.889 33.6099 114.614 44.7788 103.445L-35.6742 22.9924C-25.5055 12.8237 -11.7138 7.11111 2.66667 7.11111V120.889ZM44.7788 103.445C55.9477 92.2766 62.2222 77.1284 62.2222 61.3333H-51.5556C-51.5556 46.9528 -45.8429 33.1611 -35.6742 22.9924L44.7788 103.445ZM62.2222 61.3333V34.6667H-51.5556V61.3333H62.2222ZM5.33333 91.5556H26.6667V-22.2222H5.33333V91.5556ZM-30.2222 34.6667C-30.2222 52.5835 -23.1048 69.7665 -10.4357 82.4357L70.0174 1.98262C78.6857 10.651 83.5556 22.4078 83.5556 34.6667H-30.2222ZM-10.4357 82.4357C2.23347 95.1048 19.4165 102.222 37.3333 102.222V-11.5556C49.5922 -11.5556 61.349 -6.68574 70.0174 1.98262L-10.4357 82.4357ZM37.3333 102.222H53.3333V-11.5556H37.3333V102.222ZM53.3333 102.222C71.2502 102.222 88.4332 95.1048 101.102 82.4357L20.6493 1.98262C29.3176 -6.68573 41.0744 -11.5556 53.3333 -11.5556V102.222ZM101.102 82.4357C113.771 69.7666 120.889 52.5835 120.889 34.6667H7.11111C7.11111 22.4077 11.981 10.6509 20.6493 1.98262L101.102 82.4357ZM120.889 34.6667V21.3333H7.11111V34.6667H120.889ZM120.889 21.3333C120.889 3.41646 113.771 -13.7666 101.102 -26.4357L20.6493 54.0174C11.981 45.3491 7.11111 33.5923 7.11111 21.3333H120.889ZM101.102 -26.4357C88.4332 -39.1048 71.2502 -46.2222 53.3333 -46.2222V67.5556C41.0744 67.5556 29.3176 62.6857 20.6493 54.0174L101.102 -26.4357ZM62.2222 29.3333V10.6667H-51.5556V29.3333H62.2222ZM62.2222 10.6667C62.2222 24.34 56.7905 37.4534 47.122 47.122L-33.3311 -33.3311C-45 -21.6622 -51.5556 -5.83568 -51.5556 10.6667H62.2222ZM47.122 47.122C37.4534 56.7905 24.34 62.2222 10.6667 62.2222V-51.5556C-5.83568 -51.5556 -21.6622 -45 -33.3311 -33.3311L47.122 47.122ZM10.6667 62.2222H29.3333V-51.5556H10.6667V62.2222ZM29.3333 62.2222C15.6599 62.2222 2.54659 56.7905 -7.12195 47.122L73.3311 -33.3311C61.6622 -45 45.8357 -51.5556 29.3333 -51.5556V62.2222ZM-7.12195 47.122C-16.7905 37.4534 -22.2222 24.3401 -22.2222 10.6667H91.5556C91.5556 -5.83572 85 -21.6622 73.3311 -33.3311L-7.12195 47.122ZM-22.2222 10.6667V24H91.5556V10.6667H-22.2222ZM-22.2222 24C-22.2222 10.3266 -16.7905 -2.78677 -7.12195 -12.4553L73.3311 67.9978C85 56.3289 91.5556 40.5024 91.5556 24H-22.2222ZM-7.12195 -12.4553C2.54656 -22.1238 15.6599 -27.5556 29.3333 -27.5556V86.2222C45.8357 86.2222 61.6622 79.6667 73.3311 67.9978L-7.12195 -12.4553ZM29.3333 -27.5556H5.33333V86.2222H29.3333V-27.5556ZM1.77778 34.6667C1.77778 20.9932 7.20953 7.8799 16.878 -1.78862L97.3311 78.6644C109 66.9955 115.556 51.1691 115.556 34.6667H1.77778ZM16.878 -1.78862C26.5466 -11.4571 39.6599 -16.8889 53.3333 -16.8889V96.8889C69.8357 96.8889 85.6622 90.3333 97.3311 78.6644L16.878 -1.78862ZM53.3333 -16.8889H37.3333V96.8889H53.3333V-16.8889ZM37.3333 -16.8889C51.0068 -16.8889 64.1201 -11.4571 73.7886 -1.78862L-6.66442 78.6644C5.00448 90.3333 20.8309 96.8889 37.3333 96.8889V-16.8889ZM73.7886 -1.78862C83.4571 7.8799 88.8889 20.9932 88.8889 34.6667H-24.8889C-24.8889 51.1691 -18.3333 66.9955 -6.66442 78.6644L73.7886 -1.78862ZM88.8889 34.6667V34.288H-24.8889V34.6667H88.8889ZM46.2218 89.3705C60.6812 85.6373 73.496 77.2182 82.663 65.4294L-7.15526 -4.41375C-0.883092 -12.4798 7.88495 -18.2402 17.7782 -20.7945L46.2218 89.3705ZM82.663 65.4294C91.83 53.6406 96.8325 39.1466 96.8885 24.2132L-16.8885 23.7868C-16.8502 13.5692 -13.4274 3.65226 -7.15526 -4.41375L82.663 65.4294ZM96.8889 24V16H-16.8889V24H96.8889ZM40 72.8889H53.3333V-40.8889H40V72.8889ZM53.3333 72.8889C39.6599 72.8889 26.5466 67.4572 16.878 57.7886L97.3311 -22.6644C85.6622 -34.3334 69.8357 -40.8889 53.3333 -40.8889V72.8889ZM16.878 57.7886C7.20952 48.1201 1.77778 35.0067 1.77778 21.3333H115.556C115.556 4.83095 109 -10.9955 97.3311 -22.6644L16.878 57.7886ZM1.77778 21.3333V34.6667H115.556V21.3333H1.77778Z" fill="#E7BC0F" mask="url(#path-1-inside-1_10004_31255)"/>
</g>
<defs>
<clipPath id="clip0_10004_31255">
<rect width="64" height="64" fill="white"/>
</clipPath>
</defs>
</svg>
