<svg width="64" height="64" viewBox="0 0 64 64" fill="none" xmlns="http://www.w3.org/2000/svg">
<path fill-rule="evenodd" clip-rule="evenodd" d="M8.46557 14.9951C11.1332 9.52559 17.5141 6.4276 28.1845 5.42343C29.9345 5.27387 34.4374 5.31661 36.5501 5.50889C44.2755 6.23532 50.0589 8.41459 53.4307 11.8331C56.5251 14.9524 58.3178 21.2979 58.6379 30.0791C58.9793 40.014 56.952 48.6029 53.4307 52.171C49.0985 56.5723 40.2634 59.0293 30.2119 58.6233C18.8159 58.196 11.2612 54.8417 8.44423 48.9875C4.3041 40.42 4.3041 23.4558 8.46557 14.9951ZM29.5425 43.4538C29.5425 44.7996 30.6257 45.9156 32.0043 45.9156C33.3829 45.9156 34.4661 44.7996 34.4661 43.4538C34.4661 42.108 33.3829 40.992 32.0043 40.992C30.6257 40.992 29.5425 42.108 29.5425 43.4538ZM34.4661 34.6242C34.4661 33.7051 34.86 33.1471 36.1401 32.2936C37.1577 31.6043 39.9149 29.7334 39.9149 25.9914C39.9149 21.6259 36.3699 18.0809 32.0043 18.0809C27.6387 18.0809 24.0938 21.6259 24.0938 25.9914C24.0938 27.3372 25.2098 28.4532 26.5555 28.4532C27.9013 28.4532 29.0173 27.3372 29.0173 25.9914C29.0173 24.3502 30.3631 23.0045 32.0043 23.0045C33.6455 23.0045 34.9913 24.3502 34.9913 25.9914C34.9913 26.8449 34.5974 27.4029 33.3829 28.2235C33.3705 28.232 33.3578 28.2408 33.3448 28.2497C32.2667 28.9903 29.5425 30.8618 29.5425 34.6242V35.3135C29.5425 36.6592 30.6585 37.7753 32.0043 37.7753C33.3501 37.7753 34.4661 36.6592 34.4661 35.3135V34.6242Z" fill="#E7BC0F"/>
</svg>
