<svg width="64" height="64" viewBox="0 0 64 64" fill="none" xmlns="http://www.w3.org/2000/svg">
<path d="M43.1779 5.3335H20.8312C11.1246 5.3335 5.33789 11.1202 5.33789 20.8268V43.1468C5.33789 52.8802 11.1246 58.6668 20.8312 58.6668H43.1512C52.8579 58.6668 58.6446 52.8802 58.6446 43.1735V20.8268C58.6712 11.1202 52.8846 5.3335 43.1779 5.3335ZM49.4179 33.4135L37.9779 44.8535C37.5779 45.2535 37.0712 45.4402 36.5646 45.4402C36.0579 45.4402 35.5512 45.2535 35.1512 44.8535C34.3779 44.0802 34.3779 42.8002 35.1512 42.0268L43.1779 34.0002H16.0046C14.9112 34.0002 14.0046 33.0935 14.0046 32.0002C14.0046 30.9068 14.9112 30.0002 16.0046 30.0002H43.1779L35.1512 21.9735C34.3779 21.2002 34.3779 19.9202 35.1512 19.1468C35.9246 18.3735 37.2046 18.3735 37.9779 19.1468L49.4179 30.5868C49.7912 30.9602 50.0046 31.4668 50.0046 32.0002C50.0046 32.5335 49.7912 33.0402 49.4179 33.4135Z" fill="#E7BC0F"/>
</svg>
