<svg width="64" height="64" viewBox="0 0 64 64" fill="none" xmlns="http://www.w3.org/2000/svg">
<path d="M24 58.6668H40C53.3334 58.6668 58.6667 53.3335 58.6667 40.0002V24.0002C58.6667 10.6668 53.3334 5.3335 40 5.3335H24C10.6667 5.3335 5.33337 10.6668 5.33337 24.0002V40.0002C5.33337 53.3335 10.6667 58.6668 24 58.6668Z" stroke="#E7BC0F" stroke-width="4" stroke-linecap="round" stroke-linejoin="round"/>
<path d="M33.6 49.3335H43.7333C47.7333 49.3335 49.3333 47.7335 49.3333 43.7335V38.9335C49.3333 34.9335 47.7333 33.3335 43.7333 33.3335H33.6C29.6 33.3335 28 34.9335 28 38.9335V43.7335C28 47.7335 29.6 49.3335 33.6 49.3335Z" stroke="#E7BC0F" stroke-width="4" stroke-linecap="round" stroke-linejoin="round"/>
</svg>
