<svg width="64" height="64" viewBox="0 0 64 64" fill="none" xmlns="http://www.w3.org/2000/svg">
<path d="M33.8061 53.2186C34.5388 53.389 34.6059 54.3486 33.8923 54.5865L29.679 55.9731C19.0923 59.3865 13.519 56.5331 10.079 45.9465L6.66562 35.4131C3.25229 24.8265 6.07896 19.2265 16.6656 15.8131L18.0629 15.3504C19.1373 14.9946 20.1828 16.0721 19.8777 17.1619C19.7265 17.7021 19.581 18.2658 19.439 18.8531L16.8256 30.0265C13.8923 42.5865 18.1856 49.5198 30.7456 52.5065L33.8061 53.2186Z" fill="#E7BC0F"/>
<path d="M45.7839 8.55986L41.3306 7.51986C32.4239 5.41319 27.1172 7.14653 23.9972 13.5999C23.1972 15.2265 22.5572 17.1999 22.0239 19.4665L19.4106 30.6399C16.7972 41.7865 20.2372 47.2799 31.3572 49.9199L35.8372 50.9865C37.3839 51.3599 38.8239 51.5999 40.1572 51.7065C48.4772 52.5065 52.9039 48.6132 55.1439 38.9865L57.7572 27.8399C60.3706 16.6932 56.9572 11.1732 45.7839 8.55986ZM40.7706 35.5465C40.5306 36.4532 39.7306 37.0399 38.8239 37.0399C38.6639 37.0399 38.5039 37.0132 38.3172 36.9865L30.5572 35.0132C29.4906 34.7465 28.8506 33.6532 29.1172 32.5865C29.3839 31.5199 30.4772 30.8799 31.5439 31.1465L39.3039 33.1199C40.3972 33.3865 41.0372 34.4799 40.7706 35.5465ZM48.5839 26.5332C48.3439 27.4399 47.5439 28.0265 46.6372 28.0265C46.4772 28.0265 46.3172 27.9999 46.1306 27.9732L33.1972 24.6932C32.1306 24.4265 31.4906 23.3332 31.7572 22.2665C32.0239 21.1999 33.1172 20.5599 34.1839 20.8265L47.1172 24.1065C48.2106 24.3465 48.8506 25.4399 48.5839 26.5332Z" fill="#E7BC0F"/>
</svg>
