<svg width="64" height="64" viewBox="0 0 64 64" fill="none" xmlns="http://www.w3.org/2000/svg">
<path d="M32 40C36.4183 40 40 36.4183 40 32C40 27.5817 36.4183 24 32 24C27.5817 24 24 27.5817 24 32C24 36.4183 27.5817 40 32 40Z" stroke="#E7BC0F" stroke-width="4" stroke-miterlimit="10" stroke-linecap="round" stroke-linejoin="round"/>
<path d="M5.33337 34.3467V29.6533C5.33337 26.88 7.60004 24.5867 10.4 24.5867C15.2267 24.5867 17.2 21.1733 14.7734 16.9867C13.3867 14.5867 14.2134 11.4667 16.64 10.08L21.2534 7.43999C23.36 6.18666 26.08 6.93333 27.3334 9.03999L27.6267 9.54666C30.0267 13.7333 33.9734 13.7333 36.4 9.54666L36.6934 9.03999C37.9467 6.93333 40.6667 6.18666 42.7734 7.43999L47.3867 10.08C49.8134 11.4667 50.64 14.5867 49.2534 16.9867C46.8267 21.1733 48.8 24.5867 53.6267 24.5867C56.4 24.5867 58.6934 26.8533 58.6934 29.6533V34.3467C58.6934 37.12 56.4267 39.4133 53.6267 39.4133C48.8 39.4133 46.8267 42.8267 49.2534 47.0133C50.64 49.44 49.8134 52.5333 47.3867 53.92L42.7734 56.56C40.6667 57.8133 37.9467 57.0667 36.6934 54.96L36.4 54.4533C34 50.2667 30.0534 50.2667 27.6267 54.4533L27.3334 54.96C26.08 57.0667 23.36 57.8133 21.2534 56.56L16.64 53.92C14.2134 52.5333 13.3867 49.4133 14.7734 47.0133C17.2 42.8267 15.2267 39.4133 10.4 39.4133C7.60004 39.4133 5.33337 37.12 5.33337 34.3467Z" stroke="#E7BC0F" stroke-width="4" stroke-miterlimit="10" stroke-linecap="round" stroke-linejoin="round"/>
</svg>
