<svg width="64" height="64" viewBox="0 0 64 64" fill="none" xmlns="http://www.w3.org/2000/svg">
<g clip-path="url(#clip0_10004_31276)">
<path d="M32 42.6667C29.8903 42.6667 27.828 42.0411 26.0739 40.869C24.3198 39.6969 22.9526 38.031 22.1453 36.082C21.3379 34.1329 21.1267 31.9882 21.5383 29.919C21.9499 27.8499 22.9658 25.9493 24.4575 24.4575C25.9493 22.9658 27.8499 21.9499 29.919 21.5383C31.9882 21.1267 34.1329 21.338 36.082 22.1453C38.031 22.9526 39.6969 24.3198 40.869 26.0739C42.0411 27.828 42.6667 29.8903 42.6667 32C42.6667 34.829 41.5429 37.5421 39.5425 39.5425C37.5421 41.5429 34.829 42.6667 32 42.6667ZM32 26.6667C30.9452 26.6667 29.914 26.9795 29.037 27.5655C28.1599 28.1515 27.4763 28.9845 27.0726 29.959C26.669 30.9336 26.5634 32.0059 26.7691 33.0405C26.9749 34.0751 27.4829 35.0254 28.2288 35.7712C28.9746 36.5171 29.925 37.0251 30.9595 37.2309C31.9941 37.4366 33.0664 37.331 34.041 36.9274C35.0155 36.5237 35.8485 35.8401 36.4345 34.963C37.0205 34.086 37.3333 33.0548 37.3333 32C37.3333 30.5855 36.7714 29.229 35.7712 28.2288C34.771 27.2286 33.4145 26.6667 32 26.6667ZM48 61.3333C48 57.0899 46.3143 53.0202 43.3137 50.0196C40.3131 47.019 36.2435 45.3333 32 45.3333C27.7565 45.3333 23.6869 47.019 20.6863 50.0196C17.6857 53.0202 16 57.0899 16 61.3333C16 62.0406 16.281 62.7189 16.781 63.219C17.2811 63.7191 17.9594 64 18.6667 64C19.3739 64 20.0522 63.7191 20.5523 63.219C21.0524 62.7189 21.3333 62.0406 21.3333 61.3333C21.3333 58.5044 22.4571 55.7913 24.4575 53.7909C26.4579 51.7905 29.171 50.6667 32 50.6667C34.829 50.6667 37.5421 51.7905 39.5425 53.7909C41.5429 55.7913 42.6667 58.5044 42.6667 61.3333C42.6667 62.0406 42.9476 62.7189 43.4477 63.219C43.9478 63.7191 44.6261 64 45.3333 64C46.0406 64 46.7189 63.7191 47.219 63.219C47.7191 62.7189 48 62.0406 48 61.3333ZM48 21.3333C45.8903 21.3333 43.828 20.7078 42.0739 19.5357C40.3198 18.3636 38.9526 16.6977 38.1453 14.7486C37.338 12.7996 37.1267 10.6548 37.5383 8.58571C37.9499 6.51658 38.9658 4.61596 40.4575 3.1242C41.9493 1.63244 43.8499 0.616538 45.919 0.204962C47.9882 -0.206614 50.1329 0.00462166 52.082 0.811956C54.031 1.61929 55.6969 2.98646 56.869 4.74059C58.0411 6.49471 58.6667 8.557 58.6667 10.6667C58.6667 13.4956 57.5429 16.2088 55.5425 18.2091C53.5421 20.2095 50.829 21.3333 48 21.3333ZM48 5.33334C46.9452 5.33334 45.914 5.64613 45.037 6.23217C44.1599 6.8182 43.4763 7.65115 43.0726 8.62569C42.669 9.60023 42.5634 10.6726 42.7691 11.7072C42.9749 12.7417 43.4829 13.692 44.2288 14.4379C44.9746 15.1838 45.925 15.6917 46.9595 15.8975C47.9941 16.1033 49.0664 15.9977 50.041 15.594C51.0155 15.1904 51.8485 14.5068 52.4345 13.6297C53.0205 12.7527 53.3333 11.7215 53.3333 10.6667C53.3333 9.25218 52.7714 7.89563 51.7712 6.89544C50.771 5.89524 49.4145 5.33334 48 5.33334ZM64 40C63.9958 35.7578 62.3087 31.6906 59.309 28.691C56.3094 25.6913 52.2422 24.0042 48 24C47.2928 24 46.6145 24.281 46.1144 24.7811C45.6143 25.2812 45.3333 25.9594 45.3333 26.6667C45.3333 27.3739 45.6143 28.0522 46.1144 28.5523C46.6145 29.0524 47.2928 29.3333 48 29.3333C50.829 29.3333 53.5421 30.4571 55.5425 32.4575C57.5429 34.4579 58.6667 37.171 58.6667 40C58.6667 40.7072 58.9476 41.3855 59.4477 41.8856C59.9478 42.3857 60.6261 42.6667 61.3333 42.6667C62.0406 42.6667 62.7189 42.3857 63.219 41.8856C63.7191 41.3855 64 40.7072 64 40ZM16 21.3333C13.8903 21.3333 11.828 20.7078 10.0739 19.5357C8.31979 18.3636 6.95262 16.6977 6.14529 14.7486C5.33795 12.7996 5.12672 10.6548 5.53829 8.58571C5.94987 6.51658 6.96577 4.61596 8.45753 3.1242C9.94929 1.63244 11.8499 0.616538 13.919 0.204962C15.9882 -0.206614 18.1329 0.00462166 20.082 0.811956C22.031 1.61929 23.6969 2.98646 24.869 4.74059C26.0411 6.49471 26.6667 8.557 26.6667 10.6667C26.6667 13.4956 25.5429 16.2088 23.5425 18.2091C21.5421 20.2095 18.829 21.3333 16 21.3333ZM16 5.33334C14.9452 5.33334 13.914 5.64613 13.037 6.23217C12.1599 6.8182 11.4763 7.65115 11.0726 8.62569C10.669 9.60023 10.5634 10.6726 10.7691 11.7072C10.9749 12.7417 11.4829 13.692 12.2288 14.4379C12.9746 15.1838 13.925 15.6917 14.9595 15.8975C15.9941 16.1033 17.0664 15.9977 18.041 15.594C19.0155 15.1904 19.8485 14.5068 20.4345 13.6297C21.0205 12.7527 21.3333 11.7215 21.3333 10.6667C21.3333 9.25218 20.7714 7.89563 19.7712 6.89544C18.771 5.89524 17.4145 5.33334 16 5.33334ZM5.33333 40C5.33333 37.171 6.45714 34.4579 8.45753 32.4575C10.4579 30.4571 13.171 29.3333 16 29.3333C16.7072 29.3333 17.3855 29.0524 17.8856 28.5523C18.3857 28.0522 18.6667 27.3739 18.6667 26.6667C18.6667 25.9594 18.3857 25.2812 17.8856 24.7811C17.3855 24.281 16.7072 24 16 24C11.7578 24.0042 7.69063 25.6913 4.69097 28.691C1.69131 31.6906 0.00423581 35.7578 0 40C0 40.7072 0.280952 41.3855 0.781049 41.8856C1.28115 42.3857 1.95942 42.6667 2.66667 42.6667C3.37391 42.6667 4.05219 42.3857 4.55229 41.8856C5.05238 41.3855 5.33333 40.7072 5.33333 40Z" fill="#E7BC0F"/>
</g>
<defs>
<clipPath id="clip0_10004_31276">
<rect width="64" height="64" fill="white"/>
</clipPath>
</defs>
</svg>
