<svg width="64" height="64" viewBox="0 0 64 64" fill="none" xmlns="http://www.w3.org/2000/svg">
<path d="M5.33337 26.6664V37.3331C5.33337 42.6664 8.00004 45.3331 13.3334 45.3331H17.1467C18.1334 45.3331 19.12 45.6264 19.9734 46.1331L27.76 51.0131C34.48 55.2264 40 52.1598 40 44.2398V19.7598C40 11.8131 34.48 8.7731 27.76 12.9864L19.9734 17.8664C19.12 18.3731 18.1334 18.6664 17.1467 18.6664H13.3334C8.00004 18.6664 5.33337 21.3331 5.33337 26.6664Z" stroke="#E7BC0F" stroke-width="4"/>
<path d="M48 21.3335C52.7467 27.6535 52.7467 36.3468 48 42.6668" stroke="#E7BC0F" stroke-width="4" stroke-linecap="round" stroke-linejoin="round"/>
<path d="M52.88 14.6665C60.5867 24.9332 60.5867 39.0665 52.88 49.3332" stroke="#E7BC0F" stroke-width="4" stroke-linecap="round" stroke-linejoin="round"/>
</svg>
