<svg width="64" height="64" viewBox="0 0 64 64" fill="none" xmlns="http://www.w3.org/2000/svg">
<path d="M53.6065 24.5867C48.7799 24.5867 46.8065 21.1733 49.2065 16.9867C50.5932 14.56 49.7665 11.4667 47.3398 10.08L42.7265 7.43999C40.6199 6.18666 37.8998 6.93333 36.6465 9.03999L36.3532 9.54666C33.9532 13.7333 30.0065 13.7333 27.5798 9.54666L27.2865 9.03999C26.0865 6.93333 23.3665 6.18666 21.2598 7.43999L16.6465 10.08C14.2198 11.4667 13.3932 14.5867 14.7798 17.0133C17.2065 21.1733 15.2332 24.5867 10.4065 24.5867C7.63318 24.5867 5.33984 26.8533 5.33984 29.6533V34.3467C5.33984 37.12 7.60651 39.4133 10.4065 39.4133C15.2332 39.4133 17.2065 42.8267 14.7798 47.0133C13.3932 49.44 14.2198 52.5333 16.6465 53.92L21.2598 56.56C23.3665 57.8133 26.0865 57.0667 27.3398 54.96L27.6332 54.4533C30.0332 50.2667 33.9798 50.2667 36.4065 54.4533L36.6998 54.96C37.9532 57.0667 40.6732 57.8133 42.7799 56.56L47.3932 53.92C49.8199 52.5333 50.6465 49.4133 49.2598 47.0133C46.8332 42.8267 48.8065 39.4133 53.6332 39.4133C56.4065 39.4133 58.6999 37.1467 58.6999 34.3467V29.6533C58.6732 26.88 56.4065 24.5867 53.6065 24.5867ZM32.0065 40.6667C27.2332 40.6667 23.3398 36.7733 23.3398 32C23.3398 27.2267 27.2332 23.3333 32.0065 23.3333C36.7798 23.3333 40.6732 27.2267 40.6732 32C40.6732 36.7733 36.7798 40.6667 32.0065 40.6667Z" fill="#E7BC0F"/>
</svg>
