<svg width="64" height="64" viewBox="0 0 64 64" fill="none" xmlns="http://www.w3.org/2000/svg">
<path d="M44.0533 15.0669L35.7866 8.66689C34.7199 7.60023 32.3199 7.06689 30.7199 7.06689H20.5866C17.3866 7.06689 13.9199 9.46689 13.1199 12.6669L6.71994 32.1336C5.3866 35.8669 7.7866 39.0669 11.7866 39.0669H22.4533C24.0533 39.0669 25.3866 40.4002 25.1199 42.2669L23.7866 50.8002C23.2533 53.2002 24.8533 55.8669 27.2533 56.6669C29.3866 57.4669 32.0533 56.4002 33.1199 54.8002L44.0533 38.5336" stroke="#E7BC0F" stroke-width="4" stroke-miterlimit="10"/>
<path d="M57.6517 15.0667V41.2C57.6517 44.9333 56.0517 46.2667 52.3184 46.2667H49.6517C45.9184 46.2667 44.3184 44.9333 44.3184 41.2V15.0667C44.3184 11.3333 45.9184 10 49.6517 10H52.3184C56.0517 10 57.6517 11.3333 57.6517 15.0667Z" stroke="#E7BC0F" stroke-width="4" stroke-linecap="round" stroke-linejoin="round"/>
</svg>
