<svg width="64" height="64" viewBox="0 0 64 64" fill="none" xmlns="http://www.w3.org/2000/svg">
<path d="M31.92 58.6668C46.6476 58.6668 58.5866 46.7278 58.5866 32.0002C58.5866 17.2726 46.6476 5.3335 31.92 5.3335C17.1924 5.3335 5.2533 17.2726 5.2533 32.0002C5.2533 46.7278 17.1924 58.6668 31.92 58.6668Z" stroke="#E7BC0F" stroke-width="4" stroke-linecap="round" stroke-linejoin="round"/>
<path d="M28.5867 38.7468V25.2535C28.5867 23.9735 28.0534 23.4668 26.6934 23.4668H23.2267C21.8667 23.4668 21.3334 23.9735 21.3334 25.2535V38.7468C21.3334 40.0268 21.8667 40.5335 23.2267 40.5335H26.6667C28.0534 40.5335 28.5867 40.0268 28.5867 38.7468Z" stroke="#E7BC0F" stroke-width="4" stroke-linecap="round" stroke-linejoin="round"/>
<path d="M42.6666 38.7468V25.2535C42.6666 23.9735 42.1333 23.4668 40.7733 23.4668H37.3333C35.9733 23.4668 35.4399 23.9735 35.4399 25.2535V38.7468C35.4399 40.0268 35.9733 40.5335 37.3333 40.5335H40.7733C42.1333 40.5335 42.6666 40.0268 42.6666 38.7468Z" stroke="#E7BC0F" stroke-width="4" stroke-linecap="round" stroke-linejoin="round"/>
</svg>
