<svg width="64" height="64" viewBox="0 0 64 64" fill="none" xmlns="http://www.w3.org/2000/svg">
<g clip-path="url(#clip0_10004_31262)">
<path d="M13.3301 1.33301H37.3301C43.1222 1.33301 47.9717 5.46308 49.0879 10.9336L49.3057 12H50.6641C57.2795 12.0002 62.6641 17.3845 62.6641 24V58.3223C62.7158 59.9444 61.7524 61.3522 60.3232 62.1172C58.8943 62.882 57.1877 62.9037 55.8643 61.96L55.8477 61.9473L55.8301 61.9355L45.2617 54.8906L44.9258 54.667H29.3301C24.1334 54.6669 19.7299 51.3179 18.0693 46.6562L17.4951 45.0469L16.0732 45.9941L8.16113 51.2695L8.14355 51.2812L8.12598 51.2939C6.80433 52.2381 5.09801 52.2163 3.66895 51.4512C2.23994 50.6859 1.27645 49.2777 1.3291 47.6562L1.33008 47.6348V13.333C1.33026 6.7176 6.71466 1.33312 13.3301 1.33301ZM49.3301 32C49.3301 38.6156 43.9457 44 37.3301 44H19.9297L20.5654 45.7812C21.8491 49.3809 25.2662 51.9999 29.3301 52H45.3301C45.593 52 45.8515 52.0789 46.0723 52.2256V52.2246L57.1885 59.6367C57.5632 59.9723 58.0245 60.0213 58.2666 60.0117C58.5927 59.9988 58.872 59.8923 59.0684 59.7881C59.265 59.6837 59.5096 59.5118 59.7031 59.249C59.85 59.0495 60.0662 58.6394 59.9971 58.1396V24C59.9971 18.8531 55.8109 14.6672 50.6641 14.667H49.3301V32ZM13.3301 4C8.18323 4.00011 3.99725 8.18618 3.99707 13.333V47.4678C3.92633 47.966 4.14062 48.3758 4.28418 48.5732C4.47534 48.8361 4.71833 49.0087 4.91406 49.1143C5.10998 49.2198 5.38737 49.3275 5.71191 49.3428C5.95917 49.3544 6.41985 49.3071 6.79785 48.9717L17.8535 41.6025C18.2464 41.4012 18.4816 41.3321 18.6572 41.333H37.3301C42.4771 41.333 46.6641 37.147 46.6641 32V13.333C46.6639 8.18611 42.477 4 37.3301 4H13.3301ZM15.9971 14.667H20.5303C20.9726 14.667 21.3301 15.0245 21.3301 15.4668C21.33 15.909 20.9725 16.2666 20.5303 16.2666H16.2607V21.8691H20.5303C20.9724 21.8691 21.3299 22.2268 21.3301 22.6689C21.3301 23.1112 20.9726 23.4697 20.5303 23.4697H16.2607V29.0723H20.5303C20.9726 29.0723 21.3301 29.4298 21.3301 29.8721C21.33 30.2843 21.0195 30.6229 20.6191 30.667H15.9971C15.2615 30.667 14.6641 30.0686 14.6641 29.333V16C14.6641 15.2644 15.2615 14.667 15.9971 14.667ZM35.7861 14.667C36.151 14.667 36.4452 14.9603 36.4453 15.3252V29.5625C36.4453 30.1728 35.9511 30.667 35.3408 30.667C34.9154 30.6669 34.5261 30.4201 34.3438 30.0352L30.5244 21.9678L27.9863 22.5391V30.0078C27.9863 30.3713 27.6909 30.667 27.3271 30.667C26.9624 30.6667 26.6689 30.3726 26.6689 30.0078V28.6748H26.6641V15.7705C26.6641 15.1603 27.1574 14.667 27.7676 14.667C28.1937 14.667 28.5827 14.9116 28.7686 15.3027L32.5889 23.3828L35.1279 22.8135V15.3252C35.128 14.9619 35.4225 14.6671 35.7861 14.667Z" fill="#E7BC0F" stroke="#E7BC0F" stroke-width="2.66667"/>
</g>
<defs>
<clipPath id="clip0_10004_31262">
<rect width="64" height="64" fill="white"/>
</clipPath>
</defs>
</svg>
