<svg width="64" height="64" viewBox="0 0 64 64" fill="none" xmlns="http://www.w3.org/2000/svg">
<path d="M58.0266 42.4535L40.9599 11.7335C38.6666 7.60016 35.4933 5.3335 31.9999 5.3335C28.5066 5.3335 25.3333 7.60016 23.0399 11.7335L5.97327 42.4535C3.81327 46.3735 3.57327 50.1335 5.30661 53.0935C7.03994 56.0535 10.4533 57.6802 14.9333 57.6802H49.0666C53.5466 57.6802 56.9599 56.0535 58.6933 53.0935C60.4266 50.1335 60.1866 46.3468 58.0266 42.4535ZM29.9999 24.0002C29.9999 22.9068 30.9066 22.0002 31.9999 22.0002C33.0933 22.0002 33.9999 22.9068 33.9999 24.0002V37.3335C33.9999 38.4268 33.0933 39.3335 31.9999 39.3335C30.9066 39.3335 29.9999 38.4268 29.9999 37.3335V24.0002ZM33.8933 47.2268C33.7599 47.3335 33.6266 47.4402 33.4933 47.5468C33.3333 47.6535 33.1733 47.7335 33.0133 47.7868C32.8533 47.8668 32.6933 47.9202 32.5066 47.9468C32.3466 47.9735 32.1599 48.0002 31.9999 48.0002C31.8399 48.0002 31.6533 47.9735 31.4666 47.9468C31.3066 47.9202 31.1466 47.8668 30.9866 47.7868C30.8266 47.7335 30.6666 47.6535 30.5066 47.5468C30.3733 47.4402 30.2399 47.3335 30.1066 47.2268C29.6266 46.7202 29.3333 46.0268 29.3333 45.3335C29.3333 44.6402 29.6266 43.9468 30.1066 43.4402C30.2399 43.3335 30.3733 43.2268 30.5066 43.1202C30.6666 43.0135 30.8266 42.9335 30.9866 42.8802C31.1466 42.8002 31.3066 42.7468 31.4666 42.7202C31.8133 42.6402 32.1866 42.6402 32.5066 42.7202C32.6933 42.7468 32.8533 42.8002 33.0133 42.8802C33.1733 42.9335 33.3333 43.0135 33.4933 43.1202C33.6266 43.2268 33.7599 43.3335 33.8933 43.4402C34.3733 43.9468 34.6666 44.6402 34.6666 45.3335C34.6666 46.0268 34.3733 46.7202 33.8933 47.2268Z" fill="#E7BC0F"/>
</svg>
