<svg width="64" height="64" viewBox="0 0 64 64" fill="none" xmlns="http://www.w3.org/2000/svg">
<path fill-rule="evenodd" clip-rule="evenodd" d="M53.8716 24.4267L57.4982 28.64C59.0716 30.48 59.0716 33.52 57.5249 35.36L53.8982 39.5733C53.2049 40.3733 52.6449 41.8933 52.6449 42.9333V47.4667C52.6449 50.2933 50.3249 52.6133 47.4982 52.6133H42.9649C41.8982 52.6133 40.4049 53.1733 39.6049 53.8667L35.3916 57.4933C33.5249 59.0667 30.5116 59.0667 28.6716 57.4933L24.4582 53.8667C23.6582 53.1733 22.1382 52.6133 21.0982 52.6133H16.4849C13.6582 52.6133 11.3382 50.2933 11.3382 47.4667V42.9067C11.3382 41.8667 10.7782 40.3733 10.1116 39.5733L6.51156 35.3333C4.9649 33.4933 4.9649 30.5067 6.51156 28.6667L10.1116 24.4267C10.7782 23.6267 11.3382 22.1333 11.3382 21.0933V16.5333C11.3382 13.7067 13.6582 11.3867 16.4849 11.3867H21.0982C22.1382 11.3867 23.6582 10.8267 24.4582 10.16L28.6449 6.50666C30.5116 4.93333 33.5249 4.93333 35.3649 6.50666L39.5782 10.1333C40.3782 10.8267 41.8982 11.3867 42.9382 11.3867H47.4716C50.2982 11.3867 52.6182 13.7067 52.6182 16.5333V21.0667C52.6182 22.1333 53.1782 23.6267 53.8716 24.4267ZM45.9429 28.3586C47.3003 27.1146 47.3927 25.0061 46.1492 23.649C44.9057 22.2919 42.7972 22.2003 41.4397 23.4442L27.7882 35.9544L22.047 30.2111C20.7457 28.9093 18.6351 28.9093 17.3329 30.2111C16.0307 31.5128 16.03 33.6234 17.3313 34.9252L25.1481 42.7447C26.5105 44.1075 28.705 44.1552 30.1262 42.8528L45.9429 28.3586Z" fill="#E7BC0F"/>
</svg>
