<svg width="64" height="64" viewBox="0 0 64 64" fill="none" xmlns="http://www.w3.org/2000/svg">
<path d="M46.6315 25.6L14.9249 44.72C13.0582 45.84 10.6582 44.5067 10.6582 42.32V20.9867C10.6582 11.68 20.7115 5.8667 28.7915 10.5067L41.0315 17.5467L46.6049 20.7467C48.4449 21.84 48.4715 24.5067 46.6315 25.6Z" fill="#E7BC0F"/>
<path d="M48.231 41.2269L37.431 47.4669L26.6577 53.6802C22.791 55.8935 18.4177 55.4402 15.2444 53.2002C13.6977 52.1335 13.8844 49.7602 15.511 48.8002L49.4044 28.4802C51.0044 27.5202 53.111 28.4269 53.4044 30.2669C54.071 34.4002 52.3644 38.8535 48.231 41.2269Z" fill="#E7BC0F"/>
</svg>
