<svg width="64" height="64" viewBox="0 0 64 64" fill="none" xmlns="http://www.w3.org/2000/svg">
<path d="M19.9492 48.9336L28.2159 55.3336C29.2826 56.4002 31.6826 56.9336 33.2826 56.9336H43.4159C46.6159 56.9336 50.0826 54.5336 50.8826 51.3336L57.2826 31.8669C58.6159 28.1336 56.2159 24.9336 52.2159 24.9336H41.5492C39.9492 24.9336 38.6159 23.6002 38.8826 21.7336L40.2159 13.2002C40.7492 10.8002 39.1492 8.13357 36.7492 7.33357C34.6159 6.53357 31.9492 7.60024 30.8826 9.20024L19.9492 25.4669" stroke="#E7BC0F" stroke-width="4" stroke-miterlimit="10"/>
<path d="M6.34961 48.9334V22.8001C6.34961 19.0667 7.94961 17.7334 11.6829 17.7334H14.3496C18.0829 17.7334 19.6829 19.0667 19.6829 22.8001V48.9334C19.6829 52.6667 18.0829 54.0001 14.3496 54.0001H11.6829C7.94961 54.0001 6.34961 52.6667 6.34961 48.9334Z" stroke="#E7BC0F" stroke-width="4" stroke-linecap="round" stroke-linejoin="round"/>
</svg>
