<svg width="64" height="64" viewBox="0 0 64 64" fill="none" xmlns="http://www.w3.org/2000/svg">
<path d="M22.6654 50.6668H21.332C10.6654 50.6668 5.33203 48.0002 5.33203 34.6668V21.3335C5.33203 10.6668 10.6654 5.3335 21.332 5.3335H42.6654C53.332 5.3335 58.6654 10.6668 58.6654 21.3335V34.6668C58.6654 45.3335 53.332 50.6668 42.6654 50.6668H41.332C40.5054 50.6668 39.7054 51.0668 39.1987 51.7335L35.1987 57.0668C33.4387 59.4135 30.5587 59.4135 28.7987 57.0668L24.7987 51.7335C24.372 51.1468 23.3854 50.6668 22.6654 50.6668Z" stroke="#E7BC0F" stroke-width="4" stroke-miterlimit="10" stroke-linecap="round" stroke-linejoin="round"/>
<path d="M42.6546 29.3333H42.6786" stroke="#E7BC0F" stroke-width="5.33333" stroke-linecap="round" stroke-linejoin="round"/>
<path d="M31.9827 29.3333H32.0067" stroke="#E7BC0F" stroke-width="5.33333" stroke-linecap="round" stroke-linejoin="round"/>
<path d="M21.3167 29.3333H21.3407" stroke="#E7BC0F" stroke-width="5.33333" stroke-linecap="round" stroke-linejoin="round"/>
</svg>
