<svg width="64" height="64" viewBox="0 0 64 64" fill="none" xmlns="http://www.w3.org/2000/svg">
<path d="M45.3322 24.0002C45.3322 34.3202 36.3722 42.6668 25.3322 42.6668L22.8522 45.6535L21.3855 47.4136C20.1322 48.9069 17.7321 48.5868 16.9055 46.8001L13.3322 38.9334C8.47882 35.5201 5.33215 30.1068 5.33215 24.0002C5.33215 13.6802 14.2922 5.3335 25.3322 5.3335C33.3855 5.3335 40.3455 9.78685 43.4655 16.1868C44.6655 18.5602 45.3322 21.2002 45.3322 24.0002Z" stroke="#E7BC0F" stroke-width="4" stroke-linecap="round" stroke-linejoin="round"/>
<path d="M58.665 34.2931C58.665 40.3998 55.5183 45.8132 50.665 49.2266L47.0917 57.0931C46.265 58.8798 43.865 59.2265 42.6117 57.7065L38.665 52.9598C32.2117 52.9598 26.4517 50.1065 22.8517 45.6532L25.3317 42.6665C36.3717 42.6665 45.3317 34.3198 45.3317 23.9998C45.3317 21.1998 44.665 18.5599 43.465 16.1865C52.185 18.1865 58.665 25.5465 58.665 34.2931Z" stroke="#E7BC0F" stroke-width="4" stroke-linecap="round" stroke-linejoin="round"/>
<path d="M18.6642 24H31.9975" stroke="#E7BC0F" stroke-width="4" stroke-linecap="round" stroke-linejoin="round"/>
</svg>
