<svg width="64" height="64" viewBox="0 0 64 64" fill="none" xmlns="http://www.w3.org/2000/svg">
<path d="M27.9987 53.0663V10.933C27.9987 6.93301 26.292 5.33301 22.052 5.33301H11.2787C7.0387 5.33301 5.33203 6.93301 5.33203 10.933V53.0663C5.33203 57.0663 7.0387 58.6663 11.2787 58.6663H22.052C26.292 58.6663 27.9987 57.0663 27.9987 53.0663Z" fill="#E7BC0F"/>
<path d="M58.6608 34.3997V10.933C58.6608 6.93301 56.9541 5.33301 52.7141 5.33301H41.9408C37.7008 5.33301 35.9941 6.93301 35.9941 10.933V34.3997C35.9941 38.3997 37.7008 39.9997 41.9408 39.9997H52.7141C56.9541 39.9997 58.6608 38.3997 58.6608 34.3997Z" fill="#E7BC0F"/>
</svg>
