<svg width="64" height="64" viewBox="0 0 64 64" fill="none" xmlns="http://www.w3.org/2000/svg">
<path d="M43.172 5.3335H20.8254C11.1187 5.3335 5.33203 11.1202 5.33203 20.8268V43.1468C5.33203 52.8802 11.1187 58.6668 20.8254 58.6668H43.1454C52.852 58.6668 58.6387 52.8802 58.6387 43.1735V20.8268C58.6654 11.1202 52.8787 5.3335 43.172 5.3335ZM47.9987 34.0002H20.8254L28.852 42.0268C29.6254 42.8002 29.6254 44.0802 28.852 44.8535C28.452 45.2535 27.9454 45.4402 27.4387 45.4402C26.932 45.4402 26.4254 45.2535 26.0254 44.8535L14.5854 33.4135C14.212 33.0402 13.9987 32.5335 13.9987 32.0002C13.9987 31.4668 14.212 30.9602 14.5854 30.5868L26.0254 19.1468C26.7987 18.3735 28.0787 18.3735 28.852 19.1468C29.6254 19.9202 29.6254 21.2002 28.852 21.9735L20.8254 30.0002H47.9987C49.092 30.0002 49.9987 30.9068 49.9987 32.0002C49.9987 33.0935 49.092 34.0002 47.9987 34.0002Z" fill="#E7BC0F"/>
</svg>
