<svg width="64" height="64" viewBox="0 0 64 64" fill="none" xmlns="http://www.w3.org/2000/svg">
<g clip-path="url(#clip0_10004_31264)">
<mask id="path-1-inside-1_10004_31264" fill="white">
<path d="M32 0C25.671 0 19.4841 1.87677 14.2218 5.39297C8.95939 8.90918 4.85787 13.9069 2.43587 19.7541C0.0138652 25.6014 -0.619842 32.0355 0.614885 38.2429C1.84961 44.4503 4.89732 50.1521 9.3726 54.6274C13.8479 59.1027 19.5497 62.1504 25.7571 63.3851C31.9645 64.6199 38.3987 63.9862 44.2459 61.5642C50.0931 59.1421 55.0908 55.0406 58.607 49.7783C62.1232 44.5159 64 38.329 64 32C63.9908 23.5159 60.6165 15.3819 54.6173 9.38272C48.6181 3.38354 40.4841 0.00917622 32 0ZM55.0587 18.6667H46.4694C44.5466 14.2106 42.0149 10.0429 38.9467 6.28267C45.7373 8.13047 51.5262 12.5799 55.0587 18.6667ZM44 32C43.9781 34.715 43.5503 37.4115 42.7307 40H21.2693C20.4497 37.4115 20.0219 34.715 20 32C20.0219 29.285 20.4497 26.5885 21.2693 24H42.7307C43.5503 26.5885 43.9781 29.285 44 32ZM23.408 45.3333H40.592C38.3286 49.8019 35.4351 53.9222 32 57.568C28.5637 53.9233 25.67 49.8028 23.408 45.3333ZM23.408 18.6667C25.6714 14.1981 28.5649 10.0778 32 6.432C35.4364 10.0767 38.33 14.1972 40.592 18.6667H23.408ZM25.0667 6.28267C21.9938 10.0421 19.4576 14.2099 17.5307 18.6667H8.94135C12.477 12.5772 18.2711 8.12735 25.0667 6.28267ZM6.56268 24H15.7333C15.042 26.6111 14.6836 29.299 14.6667 32C14.6836 34.701 15.042 37.389 15.7333 40H6.56268C4.92359 34.7926 4.92359 29.2074 6.56268 24ZM8.94135 45.3333H17.5307C19.4576 49.7901 21.9938 53.9579 25.0667 57.7173C18.2711 55.8727 12.477 51.4229 8.94135 45.3333ZM38.9467 57.7173C42.0149 53.9571 44.5466 49.7894 46.4694 45.3333H55.0587C51.5262 51.4201 45.7373 55.8695 38.9467 57.7173ZM57.4373 40H48.2667C48.958 37.389 49.3164 34.701 49.3334 32C49.3164 29.299 48.958 26.6111 48.2667 24H57.432C59.0711 29.2074 59.0711 34.7926 57.432 40H57.4373Z"/>
</mask>
<path d="M32 0C25.671 0 19.4841 1.87677 14.2218 5.39297C8.95939 8.90918 4.85787 13.9069 2.43587 19.7541C0.0138652 25.6014 -0.619842 32.0355 0.614885 38.2429C1.84961 44.4503 4.89732 50.1521 9.3726 54.6274C13.8479 59.1027 19.5497 62.1504 25.7571 63.3851C31.9645 64.6199 38.3987 63.9862 44.2459 61.5642C50.0931 59.1421 55.0908 55.0406 58.607 49.7783C62.1232 44.5159 64 38.329 64 32C63.9908 23.5159 60.6165 15.3819 54.6173 9.38272C48.6181 3.38354 40.4841 0.00917622 32 0ZM55.0587 18.6667H46.4694C44.5466 14.2106 42.0149 10.0429 38.9467 6.28267C45.7373 8.13047 51.5262 12.5799 55.0587 18.6667ZM44 32C43.9781 34.715 43.5503 37.4115 42.7307 40H21.2693C20.4497 37.4115 20.0219 34.715 20 32C20.0219 29.285 20.4497 26.5885 21.2693 24H42.7307C43.5503 26.5885 43.9781 29.285 44 32ZM23.408 45.3333H40.592C38.3286 49.8019 35.4351 53.9222 32 57.568C28.5637 53.9233 25.67 49.8028 23.408 45.3333ZM23.408 18.6667C25.6714 14.1981 28.5649 10.0778 32 6.432C35.4364 10.0767 38.33 14.1972 40.592 18.6667H23.408ZM25.0667 6.28267C21.9938 10.0421 19.4576 14.2099 17.5307 18.6667H8.94135C12.477 12.5772 18.2711 8.12735 25.0667 6.28267ZM6.56268 24H15.7333C15.042 26.6111 14.6836 29.299 14.6667 32C14.6836 34.701 15.042 37.389 15.7333 40H6.56268C4.92359 34.7926 4.92359 29.2074 6.56268 24ZM8.94135 45.3333H17.5307C19.4576 49.7901 21.9938 53.9579 25.0667 57.7173C18.2711 55.8727 12.477 51.4229 8.94135 45.3333ZM38.9467 57.7173C42.0149 53.9571 44.5466 49.7894 46.4694 45.3333H55.0587C51.5262 51.4201 45.7373 55.8695 38.9467 57.7173ZM57.4373 40H48.2667C48.958 37.389 49.3164 34.701 49.3334 32C49.3164 29.299 48.958 26.6111 48.2667 24H57.432C59.0711 29.2074 59.0711 34.7926 57.432 40H57.4373Z" fill="#E7BC0F"/>
<path d="M32 0L32.0615 -56.8889L32.0308 -56.8889H32V0ZM64 32H120.889V31.9692L120.889 31.9385L64 32ZM55.0587 18.6667V75.5556H153.85L104.262 -9.8887L55.0587 18.6667ZM46.4694 18.6667L-5.76435 41.2052L9.05763 75.5556H46.4694V18.6667ZM38.9467 6.28267L53.8837 -48.6103L-117.27 -95.1831L-5.13071 42.2483L38.9467 6.28267ZM44 32L100.887 32.4587L100.891 32L100.887 31.5413L44 32ZM42.7307 40V96.8889H84.3903L96.9658 57.1727L42.7307 40ZM21.2693 40L-32.9657 57.1727L-20.3902 96.8889H21.2693V40ZM20 32L-36.887 31.5413L-36.8907 32L-36.887 32.4587L20 32ZM21.2693 24V-32.8889H-20.3902L-32.9657 6.82731L21.2693 24ZM42.7307 24L96.9658 6.82731L84.3903 -32.8889H42.7307V24ZM23.408 45.3333V-11.5556H-69.1429L-27.3506 71.0221L23.408 45.3333ZM40.592 45.3333L91.3423 71.0386L133.177 -11.5556H40.592V45.3333ZM32 57.568L-9.39239 96.5938L32.0135 140.511L73.4051 96.5804L32 57.568ZM23.408 18.6667L-27.3422 -7.03857L-69.1765 75.5556H23.408V18.6667ZM32 6.432L73.3924 -32.5938L31.9865 -76.5106L-9.40506 -32.5804L32 6.432ZM40.592 18.6667V75.5556H133.143L91.3506 -7.02209L40.592 18.6667ZM25.0667 6.28267L69.1134 42.2859L181.416 -95.1064L10.1634 -48.6194L25.0667 6.28267ZM17.5307 18.6667V75.5556H54.9131L69.7482 41.2428L17.5307 18.6667ZM8.94135 18.6667L-40.2564 -9.89785L-89.8712 75.5556H8.94135V18.6667ZM6.56268 24V-32.8889H-35.1713L-47.7016 6.91967L6.56268 24ZM15.7333 24L70.7273 38.5604L89.6446 -32.8889H15.7333V24ZM14.6667 32L-42.2211 31.6429L-42.2233 32L-42.2211 32.3571L14.6667 32ZM15.7333 40V96.8889H89.6446L70.7273 25.4396L15.7333 40ZM6.56268 40L-47.7016 57.0803L-35.1713 96.8889H6.56268V40ZM8.94135 45.3333V-11.5556H-89.8712L-40.2564 73.8979L8.94135 45.3333ZM17.5307 45.3333L69.7482 22.7572L54.9131 -11.5556H17.5307V45.3333ZM25.0667 57.7173L10.1634 112.619L181.416 159.106L69.1134 21.7141L25.0667 57.7173ZM38.9467 57.7173L-5.13071 21.7517L-117.27 159.183L53.8837 112.61L38.9467 57.7173ZM46.4694 45.3333V-11.5556H9.05763L-5.76435 22.7948L46.4694 45.3333ZM55.0587 45.3333L104.262 73.8887L153.85 -11.5556H55.0587V45.3333ZM48.2667 40L-6.72732 25.4396L-25.6445 96.8889H48.2667V40ZM49.3334 32L106.221 32.3571L106.223 32L106.221 31.6429L49.3334 32ZM48.2667 24V-32.8889H-25.6445L-6.72732 38.5604L48.2667 24ZM57.432 24L111.696 6.91967L99.166 -32.8889H57.432V24ZM57.432 40L3.16777 22.9197L-20.1149 96.8889H57.432V40ZM32 -56.8889C14.4195 -56.8889 -2.7663 -51.6757 -17.384 -41.9084L45.8275 52.6944C41.7346 55.4292 36.9226 56.8889 32 56.8889V-56.8889ZM-17.384 -41.9084C-32.0017 -32.1412 -43.3948 -18.2586 -50.1226 -2.0163L54.9944 41.5246C53.1106 46.0724 49.9205 49.9595 45.8275 52.6944L-17.384 -41.9084ZM-50.1226 -2.0163C-56.8504 14.226 -58.6107 32.0986 -55.1809 49.3414L56.4107 27.1444C57.371 31.9724 56.8781 36.9767 54.9944 41.5246L-50.1226 -2.0163ZM-55.1809 49.3414C-51.7511 66.5841 -43.2853 82.4226 -30.8539 94.8539L49.5991 14.4009C53.0799 17.8817 55.4503 22.3165 56.4107 27.1444L-55.1809 49.3414ZM-30.8539 94.8539C-18.4226 107.285 -2.58409 115.751 14.6587 119.181L36.8556 7.58935C41.6836 8.54969 46.1183 10.9201 49.5991 14.4009L-30.8539 94.8539ZM14.6587 119.181C31.9014 122.611 49.774 120.85 66.0163 114.123L22.4754 9.00567C27.0233 7.12189 32.0276 6.629 36.8556 7.58935L14.6587 119.181ZM66.0163 114.123C82.2586 107.395 96.1412 96.0017 105.908 81.384L11.3057 18.1725C14.0405 14.0795 17.9276 10.8894 22.4754 9.00567L66.0163 114.123ZM105.908 81.384C115.676 66.7663 120.889 49.5806 120.889 32H7.11112C7.11112 27.0774 8.57084 22.2654 11.3057 18.1725L105.908 81.384ZM120.889 31.9385C120.863 8.38783 111.497 -14.191 94.8438 -30.8438L14.3908 49.6092C9.73629 44.9547 7.11828 38.644 7.11116 32.0615L120.889 31.9385ZM94.8438 -30.8438C78.191 -47.4966 55.6122 -56.8634 32.0615 -56.8889L31.9385 56.8889C25.3561 56.8817 19.0453 54.2637 14.3908 49.6092L94.8438 -30.8438ZM55.0587 -38.2222H46.4694V75.5556H55.0587V-38.2222ZM98.7031 -3.87188C94.6956 -13.1593 89.4189 -21.8458 83.0241 -29.683L-5.13071 42.2483C-5.38914 41.9316 -5.60239 41.5806 -5.76435 41.2052L98.7031 -3.87188ZM24.0097 61.1756C16.3584 59.0936 9.83586 54.0802 5.85566 47.222L104.262 -9.8887C93.2165 -28.9204 75.1162 -42.8326 53.8837 -48.6103L24.0097 61.1756ZM-12.887 31.5413C-12.8632 28.584 -12.3972 25.6468 -11.5044 22.8273L96.9658 57.1727C99.4977 49.1763 100.819 40.8461 100.887 32.4587L-12.887 31.5413ZM42.7307 -16.8889H21.2693V96.8889H42.7307V-16.8889ZM75.5044 22.8273C76.3972 25.6468 76.8632 28.584 76.8871 31.5413L-36.887 32.4587C-36.8194 40.8461 -35.4977 49.1763 -32.9657 57.1727L75.5044 22.8273ZM76.8871 32.4587C76.8632 35.416 76.3972 38.3532 75.5044 41.1727L-32.9657 6.82731C-35.4977 14.8237 -36.8194 23.1539 -36.887 31.5413L76.8871 32.4587ZM21.2693 80.8889H42.7307V-32.8889H21.2693V80.8889ZM-11.5044 41.1727C-12.3972 38.3532 -12.8632 35.416 -12.887 32.4587L100.887 31.5413C100.819 23.1539 99.4977 14.8237 96.9658 6.82731L-11.5044 41.1727ZM23.408 102.222H40.592V-11.5556H23.408V102.222ZM-10.1582 19.6281C-9.95982 19.2364 -9.70617 18.8752 -9.40506 18.5556L73.4051 96.5804C80.5764 88.9693 86.6171 80.3675 91.3423 71.0386L-10.1582 19.6281ZM73.3924 18.5422C73.702 18.8706 73.9628 19.2419 74.1666 19.6446L-27.3506 71.0221C-22.6228 80.3637 -16.5747 88.976 -9.39239 96.5938L73.3924 18.5422ZM74.1583 44.3719C73.9599 44.7636 73.7062 45.1248 73.4051 45.4444L-9.40506 -32.5804C-16.5763 -24.9693 -22.6171 -16.3675 -27.3422 -7.03857L74.1583 44.3719ZM-9.39239 45.4578C-9.70202 45.1294 -9.96275 44.7581 -10.1666 44.3554L91.3506 -7.02209C86.6228 -16.3637 80.5747 -24.976 73.3924 -32.5938L-9.39239 45.4578ZM40.592 -38.2222H23.408V75.5556H40.592V-38.2222ZM-18.98 -29.7206C-25.3847 -21.8851 -30.6707 -13.1985 -34.6868 -3.90945L69.7482 41.2428C69.5859 41.6182 69.3722 41.9692 69.1134 42.2859L-18.98 -29.7206ZM17.5307 -38.2222H8.94135V75.5556H17.5307V-38.2222ZM58.1391 47.2312C54.1553 54.0925 47.6269 59.1063 39.97 61.1847L10.1634 -48.6194C-11.0846 -42.8516 -29.2014 -28.9382 -40.2564 -9.89785L58.1391 47.2312ZM6.56268 80.8889H15.7333V-32.8889H6.56268V80.8889ZM-39.2607 9.43958C-41.1793 16.6863 -42.174 24.1466 -42.2211 31.6429L71.5545 32.3571C71.5413 34.4515 71.2634 36.5358 70.7273 38.5604L-39.2607 9.43958ZM-42.2211 32.3571C-42.174 39.8534 -41.1793 47.3137 -39.2607 54.5604L70.7273 25.4396C71.2634 27.4642 71.5413 29.5485 71.5545 31.6429L-42.2211 32.3571ZM15.7333 -16.8889H6.56268V96.8889H15.7333V-16.8889ZM60.8269 22.9197C62.6874 28.8303 62.6874 35.1697 60.8269 41.0803L-47.7016 6.91967C-52.8402 23.2451 -52.8402 40.7549 -47.7016 57.0803L60.8269 22.9197ZM8.94135 102.222H17.5307V-11.5556H8.94135V102.222ZM-34.6868 67.9095C-30.6707 77.1985 -25.3847 85.8851 -18.98 93.7206L69.1134 21.7141C69.3722 22.0307 69.5858 22.3818 69.7482 22.7572L-34.6868 67.9095ZM39.97 2.81527C47.6268 4.89374 54.1553 9.90751 58.1391 16.7688L-40.2564 73.8979C-29.2014 92.9382 -11.0846 106.852 10.1634 112.619L39.97 2.81527ZM83.0241 93.683C89.4189 85.8458 94.6956 77.1593 98.7031 67.8719L-5.76435 22.7948C-5.60239 22.4194 -5.38914 22.0684 -5.13071 21.7517L83.0241 93.683ZM46.4694 102.222H55.0587V-11.5556H46.4694V102.222ZM5.85566 16.778C9.83587 9.91978 16.3584 4.90641 24.0097 2.82442L53.8837 112.61C75.1162 106.833 93.2165 92.9204 104.262 73.8887L5.85566 16.778ZM57.4373 -16.8889H48.2667V96.8889H57.4373V-16.8889ZM103.261 54.5604C105.179 47.3137 106.174 39.8534 106.221 32.3571L-7.55442 31.6429C-7.54127 29.5485 -7.26337 27.4642 -6.72732 25.4396L103.261 54.5604ZM106.221 31.6429C106.174 24.1466 105.179 16.6863 103.261 9.43958L-6.72732 38.5604C-7.26337 36.5358 -7.54127 34.4515 -7.55442 32.3571L106.221 31.6429ZM48.2667 80.8889H57.432V-32.8889H48.2667V80.8889ZM3.16777 41.0803C1.30734 35.1697 1.30734 28.8303 3.16777 22.9197L111.696 57.0803C116.835 40.7549 116.835 23.2451 111.696 6.91967L3.16777 41.0803ZM57.432 96.8889H57.4373V-16.8889H57.432V96.8889Z" fill="#E7BC0F" mask="url(#path-1-inside-1_10004_31264)"/>
</g>
<defs>
<clipPath id="clip0_10004_31264">
<rect width="64" height="64" fill="white"/>
</clipPath>
</defs>
</svg>
