<svg width="64" height="64" viewBox="0 0 64 64" fill="none" xmlns="http://www.w3.org/2000/svg">
<g clip-path="url(#clip0_10004_31285)">
<path d="M48 33.333C56.0876 33.333 62.667 39.9124 62.667 48C62.667 56.0876 56.0876 62.667 48 62.667C39.9124 62.667 33.333 56.0876 33.333 48C33.333 39.9124 39.9124 33.333 48 33.333ZM48.0029 36C41.3839 36 36.0029 41.381 36.0029 48C36.0029 51.384 37.4204 54.4277 39.667 56.6055L41.0869 57.9824L41.8301 56.1494C42.8179 53.7132 45.1981 52.0001 47.9785 52H48.0215C50.7991 52.0001 53.1755 53.7157 54.167 56.1553L54.5049 56.9863H55.9453L56.333 56.6113C58.5825 54.4335 60.0029 51.387 60.0029 48C60.0029 41.381 54.6219 36.0001 48.0029 36ZM10.667 38.667C11.4043 38.6672 12 39.2636 12 40V45.333C12 49.0107 14.9893 52 18.667 52H24C24.7373 52 25.3328 52.5967 25.333 53.333C25.333 54.0695 24.7374 54.667 24 54.667H18.667C13.5207 54.667 9.33301 50.4793 9.33301 45.333V40C9.33301 39.2635 9.92957 38.667 10.667 38.667ZM48 41.333C49.4716 41.333 50.667 42.5284 50.667 44C50.667 45.4716 49.4716 46.667 48 46.667C46.5284 46.667 45.333 45.4716 45.333 44C45.333 42.5284 46.5284 41.333 48 41.333ZM16 1.33301C24.0876 1.33301 30.667 7.91238 30.667 16C30.667 24.0876 24.0876 30.667 16 30.667C7.91238 30.667 1.33301 24.0876 1.33301 16C1.33301 7.91238 7.91238 1.33301 16 1.33301ZM40 9.33301H45.333C50.4793 9.33301 54.667 13.5207 54.667 18.667V24C54.667 24.7365 54.0704 25.333 53.333 25.333C52.5957 25.3328 52 24.7364 52 24V18.667C52 14.9893 49.0107 12 45.333 12H40C39.2627 12 38.6672 11.4033 38.667 10.667C38.667 9.9305 39.2626 9.33301 40 9.33301ZM16.0029 4C9.38388 4 4.00293 9.38095 4.00293 16C4.00293 19.384 5.42038 22.4277 7.66699 24.6055L9.08691 25.9824L9.83008 24.1494C10.8179 21.7132 13.1981 20.0001 15.9785 20H16.0215C18.7991 20.0001 21.1755 21.7157 22.167 24.1553L22.5049 24.9863H23.9453L24.333 24.6113C26.5825 22.4335 28.0029 19.387 28.0029 16C28.0029 9.38104 22.6219 4.00014 16.0029 4ZM16 9.33301C17.4716 9.33301 18.667 10.5284 18.667 12C18.667 13.4716 17.4716 14.667 16 14.667C14.5284 14.667 13.333 13.4716 13.333 12C13.333 10.5284 14.5284 9.33301 16 9.33301Z" fill="#E7BC0F" stroke="#E7BC0F" stroke-width="2.66667"/>
</g>
<defs>
<clipPath id="clip0_10004_31285">
<rect width="64" height="64" fill="white"/>
</clipPath>
</defs>
</svg>
