<svg width="64" height="64" viewBox="0 0 64 64" fill="none" xmlns="http://www.w3.org/2000/svg">
<path d="M58.6642 15.2267V40.7733C58.6642 48.1333 52.6909 54.1067 45.3309 54.1067H18.6642C17.4376 54.1067 16.2643 53.9467 15.1176 53.6267C13.4643 53.1733 12.9309 51.0667 14.1576 49.84L42.5042 21.4933C43.0909 20.9067 43.9709 20.7733 44.7976 20.9333C45.6509 21.0933 46.5842 20.8533 47.2509 20.2133L54.1043 13.3333C56.6109 10.8267 58.6642 11.6533 58.6642 15.2267Z" fill="#E7BC0F"/>
<path d="M39.0387 19.6267L11.1187 47.5467C9.8387 48.8267 7.70536 48.5067 6.85203 46.9067C5.86536 45.0934 5.33203 42.9867 5.33203 40.7734V15.2267C5.33203 11.6534 7.38536 10.8267 9.89203 13.3334L16.772 20.2401C17.812 21.2534 19.5187 21.2534 20.5587 20.2401L30.1054 10.6667C31.1454 9.62672 32.852 9.62672 33.892 10.6667L39.0654 15.8401C40.0787 16.8801 40.0787 18.5867 39.0387 19.6267Z" fill="#E7BC0F"/>
</svg>
