<svg width="56" height="56" viewBox="0 0 56 56" fill="none" xmlns="http://www.w3.org/2000/svg">
<path d="M28 1.33301C42.6916 1.33301 54.667 13.3084 54.667 28C54.667 42.6916 42.6916 54.667 28 54.667C13.3084 54.667 1.33301 42.6916 1.33301 28C1.33301 13.3084 13.3084 1.33301 28 1.33301ZM26.8711 15.6895C25.5384 14.3568 23.3503 14.3568 22.0176 15.6895C20.6849 17.0222 20.6849 19.2103 22.0176 20.543L29.4746 28L22.0176 35.457C20.6849 36.7897 20.6849 38.9778 22.0176 40.3105C22.7008 40.9937 23.5778 41.3174 24.4443 41.3174C25.3108 41.3173 26.188 40.9937 26.8711 40.3105L36.7549 30.4268L36.7539 30.4258C38.1146 29.0932 38.1149 26.9056 36.7539 25.5732H36.7549L26.8711 15.6895Z" fill="#E7BC0F" stroke="#E7BC0F" stroke-width="2.66667"/>
</svg>
