<svg width="68" height="64" viewBox="0 0 68 64" fill="none" xmlns="http://www.w3.org/2000/svg">
<g clip-path="url(#clip0_10004_31292)">
<path d="M56.5042 41.4545H53.3445V60.8079C53.3445 62.6248 52.1991 63.5727 50.5797 63.5727C49.8293 63.5727 48.9999 63.3357 48.2099 62.8618V41.4545H45.0502C43.8258 41.4545 43.4703 41.81 43.4703 42.6394H42.6804C40.508 42.6394 39.1257 41.8495 39.1257 39.5981C39.1257 37.5048 40.666 36.3199 43.7863 36.3199H57.7681C60.8884 36.3199 62.4288 37.5048 62.4288 39.5981C62.4288 41.8495 61.0464 42.6394 58.8741 42.6394H58.0841C58.0841 41.81 57.7286 41.4545 56.5042 41.4545Z" fill="#E7BC0F"/>
<path d="M40.4889 57.2009C41.4406 60.1807 39.8036 63.3886 36.715 63.7626C31.9595 64.3384 27.0954 63.8384 22.489 62.2689C16.0846 60.0867 10.5048 55.9483 6.54493 50.4435C2.58505 44.9387 0.447129 38.3484 0.435847 31.6118C0.424565 24.8751 2.5405 18.336 6.4821 12.9263C10.4237 7.51658 15.9898 3.51234 22.3872 1.48423C28.7846 -0.543866 35.6868 -0.492331 42.1101 1.6315C48.5334 3.75532 54.15 7.84306 58.1596 13.3121C61.0435 17.2458 62.9901 21.7498 63.8829 26.4755C64.4628 29.5446 61.9135 32.0823 58.7972 32.0733L44.734 32.0325C42.1184 32.025 40.071 29.7061 38.5146 27.5831C37.5675 26.2912 36.2407 25.3256 34.7233 24.8239C33.206 24.3222 31.5755 24.31 30.0643 24.7891C28.5531 25.2682 27.2383 26.2141 26.3072 27.492C25.3761 28.7699 24.8762 30.3146 24.8789 31.9059C24.8816 33.4973 25.3866 35.0541 26.322 36.3544C27.2574 37.6548 28.5755 38.6324 30.0884 39.1479C32.5744 39.9949 35.395 41.2527 36.1938 43.7536L40.4889 57.2009Z" fill="#E7BC0F"/>
</g>
<defs>
<clipPath id="clip0_10004_31292">
<rect width="67.203" height="64" fill="white"/>
</clipPath>
</defs>
</svg>
