<svg width="64" height="64" viewBox="0 0 64 64" fill="none" xmlns="http://www.w3.org/2000/svg">
<mask id="path-1-inside-1_10004_31288" fill="white">
<path d="M40.2427 42.6587C57.7653 42.5707 64 33.2907 64 25.3333C64 20.8613 60.8347 17.12 56.6293 16.216C56.992 15.184 57.3067 14.2373 57.52 13.52C58.4613 10.3387 57.8507 6.976 55.848 4.296C53.8053 1.568 50.6827 0 47.2773 0H16.7227C13.3173 0 10.192 1.568 8.14933 4.29867C6.14667 6.97867 5.53867 10.3413 6.48 13.52C6.69333 14.2373 7.00533 15.184 7.37067 16.216C3.16533 17.12 0 20.8613 0 25.3333C0 33.2907 6.23733 42.5707 23.7573 42.6587C23.9067 43.464 24 44.2853 24 45.12V53.3333C24 58.2027 19.904 58.6453 18.6667 58.6667H16C14.5253 58.6667 13.3333 59.8587 13.3333 61.3333C13.3333 62.808 14.5253 64 16 64H48C49.4747 64 50.6667 62.808 50.6667 61.3333C50.6667 59.8587 49.4747 58.6667 48 58.6667H45.3547C44.096 58.6453 40 58.2027 40 53.3333V45.12C40 44.2853 40.0933 43.464 40.2427 42.6587ZM54.6667 21.3333C56.872 21.3333 58.6667 23.128 58.6667 25.3333C58.6667 30.7573 54.376 36.5253 42.5707 37.2533C43.16 36.456 43.8347 35.7173 44.6027 35.064C49.24 31.1227 52.424 25.856 54.5413 21.3067C54.5867 21.3067 54.6213 21.3333 54.6667 21.3333ZM5.33333 25.3333C5.33333 23.128 7.128 21.3333 9.33333 21.3333C9.37867 21.3333 9.416 21.3093 9.45867 21.3067C11.576 25.856 14.7573 31.12 19.3973 35.064C20.1653 35.7173 20.84 36.4533 21.4293 37.2533C9.624 36.5253 5.33333 30.7573 5.33333 25.3333ZM28.0347 58.6667C28.8213 57.224 29.3333 55.4827 29.3333 53.3333V45.12C29.3333 39.6507 26.9707 34.5067 22.8507 31.0027C18.1333 26.992 13.9253 19.8907 11.5947 12.0107C11.136 10.456 11.4347 8.81067 12.424 7.49333C13.448 6.12 15.016 5.33333 16.7227 5.33333H47.2747C48.9813 5.33333 50.5493 6.12 51.5733 7.49067C52.5573 8.81067 52.8587 10.456 52.4027 12.008C50.0693 19.8933 45.8613 26.992 41.1467 31.0027C37.0267 34.504 34.664 39.6507 34.664 45.12V53.3333C34.664 55.4827 35.1733 57.224 35.9627 58.6667H28.0347ZM26.1093 26.0347C25.4053 25.5493 25.1093 24.6533 25.3893 23.8427L26.7733 19.56L23.1307 16.8933C22.2587 16.2533 22.0693 15.0293 22.7093 14.1573C23.0773 13.656 23.664 13.3573 24.2853 13.3573H28.768L30.1307 9.10933C30.4747 8.07733 31.5893 7.52267 32.6213 7.86667C33.208 8.06133 33.6693 8.52267 33.864 9.10933L35.224 13.3573H39.7067C40.7867 13.3573 41.664 14.232 41.664 15.3147C41.664 15.9413 41.3653 16.528 40.8613 16.896L37.2187 19.5627L38.6027 23.8453C38.9333 24.8747 38.368 25.9787 37.336 26.312C36.7387 26.504 36.0853 26.3973 35.5787 26.0267L31.9973 23.392L28.4133 26.024C27.7307 26.5333 26.7973 26.536 26.1093 26.0347Z"/>
</mask>
<path d="M40.2427 42.6587C57.7653 42.5707 64 33.2907 64 25.3333C64 20.8613 60.8347 17.12 56.6293 16.216C56.992 15.184 57.3067 14.2373 57.52 13.52C58.4613 10.3387 57.8507 6.976 55.848 4.296C53.8053 1.568 50.6827 0 47.2773 0H16.7227C13.3173 0 10.192 1.568 8.14933 4.29867C6.14667 6.97867 5.53867 10.3413 6.48 13.52C6.69333 14.2373 7.00533 15.184 7.37067 16.216C3.16533 17.12 0 20.8613 0 25.3333C0 33.2907 6.23733 42.5707 23.7573 42.6587C23.9067 43.464 24 44.2853 24 45.12V53.3333C24 58.2027 19.904 58.6453 18.6667 58.6667H16C14.5253 58.6667 13.3333 59.8587 13.3333 61.3333C13.3333 62.808 14.5253 64 16 64H48C49.4747 64 50.6667 62.808 50.6667 61.3333C50.6667 59.8587 49.4747 58.6667 48 58.6667H45.3547C44.096 58.6453 40 58.2027 40 53.3333V45.12C40 44.2853 40.0933 43.464 40.2427 42.6587ZM54.6667 21.3333C56.872 21.3333 58.6667 23.128 58.6667 25.3333C58.6667 30.7573 54.376 36.5253 42.5707 37.2533C43.16 36.456 43.8347 35.7173 44.6027 35.064C49.24 31.1227 52.424 25.856 54.5413 21.3067C54.5867 21.3067 54.6213 21.3333 54.6667 21.3333ZM5.33333 25.3333C5.33333 23.128 7.128 21.3333 9.33333 21.3333C9.37867 21.3333 9.416 21.3093 9.45867 21.3067C11.576 25.856 14.7573 31.12 19.3973 35.064C20.1653 35.7173 20.84 36.4533 21.4293 37.2533C9.624 36.5253 5.33333 30.7573 5.33333 25.3333ZM28.0347 58.6667C28.8213 57.224 29.3333 55.4827 29.3333 53.3333V45.12C29.3333 39.6507 26.9707 34.5067 22.8507 31.0027C18.1333 26.992 13.9253 19.8907 11.5947 12.0107C11.136 10.456 11.4347 8.81067 12.424 7.49333C13.448 6.12 15.016 5.33333 16.7227 5.33333H47.2747C48.9813 5.33333 50.5493 6.12 51.5733 7.49067C52.5573 8.81067 52.8587 10.456 52.4027 12.008C50.0693 19.8933 45.8613 26.992 41.1467 31.0027C37.0267 34.504 34.664 39.6507 34.664 45.12V53.3333C34.664 55.4827 35.1733 57.224 35.9627 58.6667H28.0347ZM26.1093 26.0347C25.4053 25.5493 25.1093 24.6533 25.3893 23.8427L26.7733 19.56L23.1307 16.8933C22.2587 16.2533 22.0693 15.0293 22.7093 14.1573C23.0773 13.656 23.664 13.3573 24.2853 13.3573H28.768L30.1307 9.10933C30.4747 8.07733 31.5893 7.52267 32.6213 7.86667C33.208 8.06133 33.6693 8.52267 33.864 9.10933L35.224 13.3573H39.7067C40.7867 13.3573 41.664 14.232 41.664 15.3147C41.664 15.9413 41.3653 16.528 40.8613 16.896L37.2187 19.5627L38.6027 23.8453C38.9333 24.8747 38.368 25.9787 37.336 26.312C36.7387 26.504 36.0853 26.3973 35.5787 26.0267L31.9973 23.392L28.4133 26.024C27.7307 26.5333 26.7973 26.536 26.1093 26.0347Z" fill="black"/>
<path d="M40.2427 42.6587L39.957 -14.2295L-7.11104 -13.9931L-15.6927 32.2865L40.2427 42.6587ZM56.6293 16.216L2.9581 -2.64521L-18.4473 58.2656L44.6733 71.8343L56.6293 16.216ZM57.52 13.52L112.049 29.7367L112.06 29.699L112.071 29.6612L57.52 13.52ZM55.848 4.296L101.419 -29.7575L101.402 -29.7796L101.386 -29.8017L55.848 4.296ZM8.14933 4.29867L-37.4045 -29.7777L-37.413 -29.7663L-37.4216 -29.7548L8.14933 4.29867ZM6.48 13.52L-48.0673 29.6737L-48.0579 29.7052L-48.0486 29.7367L6.48 13.52ZM7.37067 16.216L19.3267 71.8343L82.5937 58.2341L60.9984 -2.7685L7.37067 16.216ZM23.7573 42.6587L79.6927 32.2865L71.111 -13.9931L24.0431 -14.2295L23.7573 42.6587ZM18.6667 58.6667V115.556H19.1571L19.6474 115.547L18.6667 58.6667ZM45.3547 58.6667L44.3906 115.547L44.8726 115.556H45.3547V58.6667ZM42.5707 37.2533L-3.17802 3.43909L-75.6897 101.543L46.0722 94.0344L42.5707 37.2533ZM44.6027 35.064L7.76084 -8.28373L7.75101 -8.27538L7.7412 -8.26703L44.6027 35.064ZM54.5413 21.3067V-35.5822H18.2698L2.96489 -2.69785L54.5413 21.3067ZM9.45867 21.3067L61.0351 -2.69785L44.6547 -37.893L5.91004 -35.4714L9.45867 21.3067ZM19.3973 35.064L56.2588 -8.26703L56.2501 -8.27446L56.2413 -8.28188L19.3973 35.064ZM21.4293 37.2533L17.9278 94.0344L139.437 101.527L67.2319 3.51211L21.4293 37.2533ZM28.0347 58.6667L-21.9114 31.4318L-67.7829 115.556H28.0347V58.6667ZM22.8507 31.0027L59.7069 -12.3328L59.6996 -12.339L22.8507 31.0027ZM11.5947 12.0107L-42.9691 28.1084L-42.9636 28.1271L-42.9581 28.1457L11.5947 12.0107ZM12.424 7.49333L57.913 41.6561L57.9719 41.5777L58.0306 41.499L12.424 7.49333ZM51.5733 7.49067L97.1838 -26.5098L97.166 -26.5337L97.1482 -26.5575L51.5733 7.49067ZM52.4027 12.008L106.953 28.15L106.969 28.0975L106.984 28.0449L52.4027 12.008ZM41.1467 31.0027L77.9866 74.352L77.9972 74.343L78.0077 74.334L41.1467 31.0027ZM35.9627 58.6667V115.556H131.936L85.8699 31.3607L35.9627 58.6667ZM26.1093 26.0347L59.6121 -19.9426L59.0111 -20.3806L58.3987 -20.8027L26.1093 26.0347ZM25.3893 23.8427L79.1611 42.4152L79.3468 41.8775L79.5218 41.3363L25.3893 23.8427ZM26.7733 19.56L80.9058 37.0536L93.5463 -2.06151L60.3775 -26.3433L26.7733 19.56ZM23.1307 16.8933L-10.5296 62.7554L-10.5015 62.776L-10.4735 62.7966L23.1307 16.8933ZM22.7093 14.1573L-23.1506 -19.5058L-23.1528 -19.5029L22.7093 14.1573ZM28.768 13.3573V70.2462H70.2634L82.9381 30.7339L28.768 13.3573ZM30.1307 9.10933L-23.8389 -8.88051L-23.9409 -8.57445L-24.0394 -8.26726L30.1307 9.10933ZM32.6213 7.86667L14.6315 61.8362L14.6683 61.8485L14.7051 61.8607L32.6213 7.86667ZM33.864 9.10933L88.044 -8.2364L87.9525 -8.52213L87.858 -8.80687L33.864 9.10933ZM35.224 13.3573L-18.956 30.7031L-6.29624 70.2462H35.224V13.3573ZM40.8613 16.896L7.31423 -29.0489L7.2857 -29.0281L7.2572 -29.0072L40.8613 16.896ZM37.2187 19.5627L3.61453 -26.3406L-29.5543 -2.05885L-16.9138 37.0563L37.2187 19.5627ZM38.6027 23.8453L92.7654 6.4459L92.7503 6.3988L92.7351 6.35173L38.6027 23.8453ZM37.336 26.312L54.7445 80.4718L54.783 80.4595L54.8215 80.4471L37.336 26.312ZM35.5787 26.0267L1.86717 71.8511L1.92805 71.8959L1.98905 71.9405L35.5787 26.0267ZM31.9973 23.392L65.7088 -22.4325L32.0269 -47.2111L-1.67573 -22.4607L31.9973 23.392ZM28.4133 26.024L-5.25973 -19.8287L-5.4333 -19.7012L-5.6059 -19.5725L28.4133 26.024ZM40.5284 99.5468C59.1145 99.4535 79.7223 94.3382 96.4443 79.5045C113.309 64.5439 120.889 44.2743 120.889 25.3333H7.11111C7.11111 14.3497 11.5734 2.69879 20.9404 -5.61047C30.1643 -13.7928 38.8935 -14.2242 39.957 -14.2295L40.5284 99.5468ZM120.889 25.3333C120.889 -6.62136 98.3413 -33.0058 68.5853 -39.4023L44.6733 71.8343C23.328 67.2458 7.11111 48.344 7.11111 25.3333H120.889ZM110.301 35.0772C110.8 33.6573 111.456 31.7278 112.049 29.7367L2.99143 -2.69668C3.02169 -2.79845 3.04674 -2.88071 3.06544 -2.94146C3.08426 -3.00257 3.09873 -3.04865 3.10819 -3.07851C3.11772 -3.1086 3.12362 -3.12684 3.12547 -3.13254C3.12736 -3.13838 3.12619 -3.13471 3.12171 -3.12117C3.11229 -3.09269 3.09348 -3.03643 3.06454 -2.95182C3.03585 -2.86793 3.00034 -2.76539 2.9581 -2.64521L110.301 35.0772ZM112.071 29.6612C118.162 9.07587 114.045 -12.8612 101.419 -29.7575L10.2771 38.3495C1.65644 26.8132 -1.23935 11.6015 2.96904 -2.62123L112.071 29.6612ZM101.386 -29.8017C88.6416 -46.8217 68.6718 -56.8889 47.2773 -56.8889V56.8889C32.6935 56.8889 18.969 49.9577 10.3102 38.3937L101.386 -29.8017ZM47.2773 -56.8889H16.7227V56.8889H47.2773V-56.8889ZM16.7227 -56.8889C-4.66131 -56.8889 -24.6494 -46.8288 -37.4045 -29.7777L53.7031 38.375C45.0334 49.9648 31.296 56.8889 16.7227 56.8889V-56.8889ZM-37.4216 -29.7548C-50.0635 -12.8372 -54.1574 9.10871 -48.0673 29.6737L61.0273 -2.63368C65.2347 11.574 62.3568 26.7945 53.7202 38.3521L-37.4216 -29.7548ZM-48.0486 29.7367C-47.4745 31.667 -46.83 33.5821 -46.2571 35.2005L60.9984 -2.7685C60.9697 -2.84947 60.9454 -2.91946 60.9259 -2.9764C60.9062 -3.03383 60.894 -3.07063 60.8891 -3.08554C60.8868 -3.09246 60.8871 -3.09168 60.8898 -3.08324C60.8925 -3.0749 60.8984 -3.0566 60.9072 -3.0286C60.916 -3.00076 60.9288 -2.95991 60.9452 -2.90663C60.9614 -2.85363 60.9828 -2.78325 61.0086 -2.69668L-48.0486 29.7367ZM-4.58534 -39.4023C-34.3413 -33.0058 -56.8889 -6.62136 -56.8889 25.3333H56.8889C56.8889 48.344 40.672 67.2458 19.3267 71.8343L-4.58534 -39.4023ZM-56.8889 25.3333C-56.8889 44.2809 -49.3039 64.5491 -32.4414 79.5061C-15.7211 94.3371 4.88455 99.4535 23.4716 99.5468L24.0431 -14.2295C25.1101 -14.2241 33.8371 -13.7917 43.0587 -5.61214C52.4226 2.6936 56.8889 14.3431 56.8889 25.3333H-56.8889ZM-32.178 53.0308C-32.5116 51.232 -32.8889 48.507 -32.8889 45.12H80.8889C80.8889 40.0637 80.3249 35.696 79.6927 32.2865L-32.178 53.0308ZM-32.8889 45.12V53.3333H80.8889V45.12H-32.8889ZM-32.8889 53.3333C-32.8889 46.3912 -31.363 37.5503 -26.3986 28.6072C-21.4146 19.6289 -14.5199 13.3508 -7.91842 9.30697C3.67899 2.2029 14.4138 1.84265 17.686 1.78623L19.6474 115.547C24.1569 115.469 37.5583 114.877 51.5131 106.329C69.8569 95.0924 80.8889 75.2299 80.8889 53.3333H-32.8889ZM18.6667 1.77778H16V115.556H18.6667V1.77778ZM16 1.77778C-16.8935 1.77778 -43.5556 28.4398 -43.5556 61.3333H70.2222C70.2222 91.2775 45.9442 115.556 16 115.556V1.77778ZM-43.5556 61.3333C-43.5556 94.2269 -16.8935 120.889 16 120.889V7.11111C45.9442 7.11111 70.2222 31.3891 70.2222 61.3333H-43.5556ZM16 120.889H48V7.11111H16V120.889ZM48 120.889C80.8935 120.889 107.556 94.2269 107.556 61.3333H-6.22223C-6.22223 31.3891 18.0558 7.11111 48 7.11111V120.889ZM107.556 61.3333C107.556 28.4398 80.8935 1.77778 48 1.77778V115.556C18.0558 115.556 -6.22223 91.2775 -6.22223 61.3333H107.556ZM48 1.77778H45.3547V115.556H48V1.77778ZM46.3187 1.78594C49.5211 1.84022 60.2602 2.18008 71.8723 9.2771C78.4849 13.3186 85.3947 19.5997 90.3892 28.5898C95.3633 37.5429 96.8889 46.3923 96.8889 53.3333H-16.8889C-16.8889 75.2368 -5.84736 95.122 12.5384 106.359C26.5132 114.9 39.9295 115.472 44.3906 115.547L46.3187 1.78594ZM96.8889 53.3333V45.12H-16.8889V53.3333H96.8889ZM96.8889 45.12C96.8889 48.507 96.5116 51.232 96.178 53.0308L-15.6927 32.2865C-16.3249 35.696 -16.8889 40.0637 -16.8889 45.12H96.8889ZM54.6667 78.2222C25.4531 78.2222 1.77778 54.5469 1.77778 25.3333H115.556C115.556 -8.29087 88.2909 -35.5556 54.6667 -35.5556V78.2222ZM1.77778 25.3333C1.77778 12.2628 7.33537 -0.867545 17.7639 -9.91557C27.393 -18.2701 36.6834 -19.3806 39.0691 -19.5277L46.0722 94.0344C60.2632 93.1592 77.6017 88.8007 92.3275 76.0242C107.853 62.5542 115.556 43.8279 115.556 25.3333H1.77778ZM88.3194 71.0676C86.5553 73.4543 84.3012 75.9816 81.4641 78.395L7.7412 -8.26703C3.36817 -4.54692 -0.23526 -0.5423 -3.17802 3.43909L88.3194 71.0676ZM81.4445 78.4117C94.8172 67.0461 102.25 53.6209 106.118 45.3112L2.96489 -2.69785C2.96492 -2.69792 2.96724 -2.70289 2.97198 -2.71265C2.97672 -2.72239 2.98427 -2.73769 2.99479 -2.75838C3.01539 -2.79885 3.05048 -2.86601 3.10186 -2.95782C3.19977 -3.13282 3.38834 -3.4538 3.6884 -3.8888C4.23869 -4.68657 5.50864 -6.36955 7.76084 -8.28373L81.4445 78.4117ZM54.5413 78.1956C53.1472 78.1956 51.8072 78.1442 50.527 78.0535C49.2477 77.9628 48.0399 77.8336 46.9104 77.6803C44.6566 77.3746 42.7251 76.9744 41.1961 76.6045C40.4313 76.4194 39.7543 76.2388 39.1822 76.0779C38.6118 75.9175 38.1252 75.771 37.7484 75.6542C37.5586 75.5954 37.3905 75.5422 37.2489 75.4969C37.1076 75.4517 36.9869 75.4124 36.8936 75.3819C36.8012 75.3516 36.7268 75.327 36.6822 75.3122C36.6594 75.3046 36.6411 75.2985 36.6303 75.2949C36.6205 75.2916 36.6121 75.2889 36.6143 75.2896C36.6143 75.2896 36.615 75.2898 36.6158 75.2901C36.6167 75.2904 36.6181 75.2908 36.6197 75.2914C36.6229 75.2924 36.6279 75.2941 36.6341 75.2962C36.6461 75.3002 36.6657 75.3067 36.6897 75.3147C36.7368 75.3303 36.8137 75.3558 36.9086 75.3868C37.0044 75.4182 37.1276 75.4583 37.2714 75.5043C37.4155 75.5504 37.5862 75.6044 37.7785 75.664C38.1603 75.7824 38.652 75.9304 39.2275 76.0922C39.8047 76.2545 40.4868 76.4365 41.2568 76.6228C42.7961 76.9952 44.7381 77.3975 47.0026 77.7047C48.1375 77.8587 49.3507 77.9884 50.6356 78.0795C51.9213 78.1707 53.2668 78.2222 54.6667 78.2222V-35.5556C56.0608 -35.5556 57.4008 -35.5042 58.681 -35.4135C59.9603 -35.3228 61.1681 -35.1936 62.2976 -35.0403C64.5514 -34.7346 66.4829 -34.3344 68.0118 -33.9645C68.7767 -33.7794 69.4537 -33.5988 70.0258 -33.4379C70.5962 -33.2775 71.0828 -33.131 71.4596 -33.0142C71.6494 -32.9554 71.8175 -32.9022 71.9591 -32.8569C72.1004 -32.8117 72.2211 -32.7724 72.3144 -32.7419C72.4068 -32.7116 72.4812 -32.687 72.5258 -32.6722C72.5486 -32.6646 72.5669 -32.6585 72.5777 -32.6549C72.5875 -32.6516 72.5959 -32.6489 72.5937 -32.6496C72.5937 -32.6496 72.593 -32.6498 72.5922 -32.6501C72.5913 -32.6504 72.5899 -32.6508 72.5883 -32.6514C72.5852 -32.6524 72.5801 -32.6541 72.5739 -32.6562C72.5619 -32.6602 72.5423 -32.6667 72.5183 -32.6747C72.4712 -32.6903 72.3943 -32.7158 72.2994 -32.7468C72.2036 -32.7782 72.0804 -32.8183 71.9366 -32.8643C71.7925 -32.9104 71.6218 -32.9644 71.4295 -33.024C71.0477 -33.1424 70.556 -33.2904 69.9805 -33.4522C69.4033 -33.6145 68.7212 -33.7965 67.9512 -33.9828C66.4119 -34.3552 64.4699 -34.7575 62.2054 -35.0647C61.0705 -35.2187 59.8573 -35.3484 58.5725 -35.4395C57.2867 -35.5307 55.9412 -35.5822 54.5413 -35.5822V78.1956ZM62.2222 25.3333C62.2222 54.5469 38.5469 78.2222 9.33333 78.2222V-35.5556C-24.2909 -35.5556 -51.5556 -8.29087 -51.5556 25.3333H62.2222ZM9.33333 78.2222C14.4002 78.2222 18.5741 77.5454 21.4512 76.92C22.8734 76.6108 24.0369 76.3006 24.8277 76.0774C25.5889 75.8627 26.1813 75.6777 26.3152 75.636C26.357 75.623 26.3908 75.6124 26.3933 75.6116C26.4065 75.6075 26.3799 75.6158 26.3537 75.624C26.2986 75.6412 26.1325 75.693 25.9186 75.7579C25.503 75.8839 24.6655 76.1332 23.5954 76.4084C21.4678 76.9555 17.7399 77.789 13.0073 78.0848L5.91004 -35.4714C1.1561 -35.1743 -2.59246 -34.3368 -4.74052 -33.7845C-5.82078 -33.5067 -6.66846 -33.2544 -7.09413 -33.1253C-7.31314 -33.0589 -7.48433 -33.0055 -7.54446 -32.9868C-7.57321 -32.9778 -7.60231 -32.9687 -7.59173 -32.972C-7.59169 -32.972 -7.56045 -32.9818 -7.52123 -32.994C-7.39743 -33.0326 -6.81524 -33.2144 -6.06442 -33.4262C-5.28385 -33.6465 -4.13079 -33.954 -2.71915 -34.2609C0.136898 -34.8818 4.28914 -35.5556 9.33333 -35.5556V78.2222ZM-42.1178 45.3112C-38.2509 53.6196 -30.8211 67.0416 -17.4467 78.4099L56.2413 -8.28188C58.4892 -6.37118 59.759 -4.68957 60.3116 -3.88843C60.8758 -3.07032 61.0736 -2.61506 61.0351 -2.69785L-42.1178 45.3112ZM-17.4641 78.395C-20.2543 76.0214 -22.5373 73.4867 -24.3732 70.9946L67.2319 3.51211C64.2173 -0.580055 60.585 -4.58676 56.2588 -8.26703L-17.4641 78.395ZM24.9309 -19.5277C27.3166 -19.3806 36.607 -18.2701 46.2361 -9.91557C56.6646 -0.867545 62.2222 12.2628 62.2222 25.3333H-51.5556C-51.5556 43.8279 -43.8526 62.5542 -28.3275 76.0242C-13.6017 88.8007 3.73676 93.1592 17.9278 94.0344L24.9309 -19.5277ZM77.9807 85.9016C83.2874 76.1696 86.2222 65.073 86.2222 53.3333H-27.5556C-27.5556 45.8923 -25.6448 38.2784 -21.9114 31.4318L77.9807 85.9016ZM86.2222 53.3333V45.12H-27.5556V53.3333H86.2222ZM86.2222 45.12C86.2222 23.1771 76.6952 2.11548 59.7069 -12.3328L-14.0055 74.3382C-22.7539 66.8979 -27.5556 56.1242 -27.5556 45.12H86.2222ZM59.6996 -12.339C61.5973 -10.7256 62.8782 -9.29249 63.6604 -8.32546C64.4617 -7.33477 64.97 -6.54839 65.2676 -6.04621C65.8192 -5.11554 66.0311 -4.51789 66.1474 -4.1244L-42.9581 28.1457C-38.4997 43.2198 -29.481 61.1809 -13.9983 74.3443L59.6996 -12.339ZM66.1585 -4.08706C70.8455 11.7996 67.5989 28.7591 57.913 41.6561L-33.065 -26.6695C-44.7295 -11.1377 -48.5735 9.11238 -42.9691 28.1084L66.1585 -4.08706ZM58.0306 41.499C48.3386 54.4974 33.0135 62.2222 16.7227 62.2222V-51.5556C-2.98155 -51.5556 -21.4426 -42.2574 -33.1826 -26.5123L58.0306 41.499ZM16.7227 62.2222H47.2747V-51.5556H16.7227V62.2222ZM47.2747 62.2222C30.9937 62.2222 15.6874 54.5079 5.99846 41.5388L97.1482 -26.5575C85.4112 -42.2679 66.9689 -51.5556 47.2747 -51.5556V62.2222ZM5.9629 41.4912C-3.538 28.7461 -6.86178 11.9088 -2.17905 -4.0289L106.984 28.0449C112.579 9.0032 108.653 -11.1247 97.1838 -26.5098L5.9629 41.4912ZM-2.14806 -4.134C-2.03338 -4.52158 -1.82302 -5.1163 -1.27232 -6.04553C-0.975236 -6.54681 -0.467789 -7.33194 0.33224 -8.32119C1.1132 -9.28687 2.39169 -10.7176 4.2856 -12.3287L78.0077 74.334C93.4751 61.1763 102.492 43.2282 106.953 28.15L-2.14806 -4.134ZM4.30674 -12.3467C-12.7066 2.1119 -22.2249 23.1898 -22.2249 45.12H91.5529C91.5529 56.1115 86.7599 66.8961 77.9866 74.352L4.30674 -12.3467ZM-22.2249 45.12V53.3333H91.5529V45.12H-22.2249ZM-22.2249 53.3333C-22.2249 65.0171 -19.319 76.1497 -13.9445 85.9726L85.8699 31.3607C89.6657 38.2983 91.5529 45.9482 91.5529 53.3333H-22.2249ZM35.9627 1.77778H28.0347V115.556H35.9627V1.77778ZM58.3987 -20.8027C78.6917 -6.81286 87.2402 19.0244 79.1611 42.4152L-28.3825 5.27016C-37.0215 30.2822 -27.8811 57.9115 -6.18007 72.872L58.3987 -20.8027ZM79.5218 41.3363L80.9058 37.0536L-27.3591 2.06639L-28.7431 6.34906L79.5218 41.3363ZM60.3775 -26.3433L56.7348 -29.0099L-10.4735 62.7966L-6.8308 65.4632L60.3775 -26.3433ZM56.7909 -28.9688C81.1828 -11.0665 86.5692 23.2957 68.5714 47.8176L-23.1528 -19.5029C-42.4305 6.763 -36.6655 43.5731 -10.5296 62.7554L56.7909 -28.9688ZM68.5693 47.8205C58.2823 61.8346 41.8821 70.2462 24.2853 70.2462V-43.5316C5.44589 -43.5316 -12.1277 -34.5226 -23.1506 -19.5058L68.5693 47.8205ZM24.2853 70.2462H28.768V-43.5316H24.2853V70.2462ZM82.9381 30.7339L84.3008 26.4859L-24.0394 -8.26726L-25.4021 -4.01926L82.9381 30.7339ZM84.1002 27.0992C74.4685 55.9942 43.2854 71.3875 14.6315 61.8362L50.6112 -46.1029C19.8932 -56.3422 -13.5192 -39.8395 -23.8389 -8.88051L84.1002 27.0992ZM14.7051 61.8607C-1.75498 56.3989 -14.6682 43.4858 -20.13 27.0255L87.858 -8.80687C82.0069 -26.4405 68.171 -40.2763 50.5375 -46.1274L14.7051 61.8607ZM-20.316 26.4551L-18.956 30.7031L89.404 -3.9884L88.044 -8.2364L-20.316 26.4551ZM35.224 70.2462H39.7067V-43.5316H35.224V70.2462ZM39.7067 70.2462C9.4182 70.2462 -15.2249 45.7012 -15.2249 15.3147H98.5529C98.5529 -17.2372 72.1551 -43.5316 39.7067 -43.5316V70.2462ZM-15.2249 15.3147C-15.2249 -2.21873 -6.85311 -18.7045 7.31423 -29.0489L74.4084 62.8409C89.5838 51.7605 98.5529 34.1014 98.5529 15.3147H-15.2249ZM7.2572 -29.0072L3.61453 -26.3406L70.8228 65.4659L74.4655 62.7993L7.2572 -29.0072ZM-16.9138 37.0563L-15.5298 41.3389L92.7351 6.35173L91.3511 2.06906L-16.9138 37.0563ZM-15.5601 41.2448C-24.8371 12.3664 -8.95379 -18.5193 19.8505 -27.8231L54.8215 80.4471C85.6898 70.4767 102.704 37.383 92.7654 6.4459L-15.5601 41.2448ZM19.9275 -27.8479C36.7418 -33.2525 55.0371 -30.2253 69.1683 -19.8872L1.98905 71.9405C17.1336 83.02 36.7355 86.2605 54.7445 80.4718L19.9275 -27.8479ZM69.2902 -19.7978L65.7088 -22.4325L-1.71417 69.2165L1.86717 71.8511L69.2902 -19.7978ZM-1.67573 -22.4607L-5.25973 -19.8287L62.0864 71.8767L65.6704 69.2447L-1.67573 -22.4607ZM-5.6059 -19.5725C13.8166 -34.0635 40.2588 -34.045 59.6121 -19.9426L-7.39347 72.0119C13.3359 87.117 41.6447 87.1302 62.4326 71.6205L-5.6059 -19.5725Z" fill="#E7BC0F" mask="url(#path-1-inside-1_10004_31288)"/>
</svg>
