<svg width="24" height="24" viewBox="0 0 24 24" fill="none" xmlns="http://www.w3.org/2000/svg">
<path fill-rule="evenodd" clip-rule="evenodd" d="M20.2058 9.16015L21.5663 10.7401C22.1566 11.4301 22.157 12.5701 21.5772 13.2601L20.2177 14.8401C19.9578 15.1401 19.748 15.7101 19.7482 16.1001L19.7487 17.8001C19.7491 18.8601 18.8794 19.7301 17.8194 19.7301H16.1194C15.7194 19.7301 15.1594 19.9401 14.8595 20.2001L13.28 21.5601C12.5802 22.1501 11.4502 22.1501 10.76 21.5601L9.1795 20.2001C8.87941 19.9401 8.30934 19.7301 7.91934 19.7301H6.18933C5.12932 19.7301 4.25902 18.8601 4.25866 17.8001L4.25808 16.0901C4.25795 15.7001 4.04776 15.1401 3.79765 14.8401L2.4471 13.2501C1.86687 12.5601 1.86649 11.4401 2.44625 10.7501L3.79572 9.16015C4.04562 8.86015 4.25543 8.30015 4.25529 7.91015L4.25471 6.20016C4.25435 5.14017 5.12406 4.27017 6.18406 4.27017H7.91407C8.30407 4.27017 8.87401 4.06017 9.17392 3.81017L10.7435 2.44018C11.4433 1.85018 12.5733 1.85018 13.2635 2.44018L14.8439 3.80017C15.144 4.06017 15.7141 4.27017 16.1041 4.27017H17.8041C18.8641 4.27017 19.7344 5.14017 19.7348 6.20016L19.7354 7.90015C19.7355 8.30015 19.9457 8.86015 20.2058 9.16015ZM17.2323 10.6346C17.7412 10.1681 17.7756 9.37738 17.3091 8.86849C16.8426 8.35959 16.0519 8.32521 15.543 8.7917L10.4253 13.483L8.27154 11.3293C7.78339 10.8411 6.99193 10.8411 6.50377 11.3293C6.01562 11.8174 6.01562 12.6089 6.50378 13.097L9.43607 16.0293C9.94716 16.5404 10.7701 16.5583 11.3029 16.0699L17.2323 10.6346Z" fill="#E7BC0F"/>
</svg>
